<svg class="marks" width="346" height="339" viewBox="0 0 346 339" version="1.1" xmlns="http://www.w3.org/2000/svg" xmlns:xlink="http://www.w3.org/1999/xlink"><g transform="translate(140,5)"><g class="mark-group role-frame root"><g transform="translate(0,0)"><path class="background" d="M0.5,0.5h200v294h-200Z" style="fill: none; stroke: #ddd;"></path><g><g class="mark-group role-axis"><g transform="translate(0.5,294.5)"><path class="background" d="M0,0h0v0h0Z" style="pointer-events: none; fill: none;"></path><g><g class="mark-rule role-axis-grid" style="pointer-events: none;"><line transform="translate(0,0)" x2="0" y2="-294" style="fill: none; stroke: #ddd; stroke-width: 1; opacity: 1;"></line><line transform="translate(33,0)" x2="0" y2="-294" style="fill: none; stroke: #ddd; stroke-width: 1; opacity: 1;"></line><line transform="translate(67,0)" x2="0" y2="-294" style="fill: none; stroke: #ddd; stroke-width: 1; opacity: 1;"></line><line transform="translate(100,0)" x2="0" y2="-294" style="fill: none; stroke: #ddd; stroke-width: 1; opacity: 1;"></line><line transform="translate(133,0)" x2="0" y2="-294" style="fill: none; stroke: #ddd; stroke-width: 1; opacity: 1;"></line><line transform="translate(167,0)" x2="0" y2="-294" style="fill: none; stroke: #ddd; stroke-width: 1; opacity: 1;"></line><line transform="translate(200,0)" x2="0" y2="-294" style="fill: none; stroke: #ddd; stroke-width: 1; opacity: 1;"></line></g></g></g></g><g class="mark-rect role-mark marks"><path d="M0,253.04999999999998h90v18.900000000000002h-90Z" style="fill: #4c78a8;"></path><path d="M0,232.04999999999998h30.666666666666664v18.900000000000002h-30.666666666666664Z" style="fill: #4c78a8;"></path><path d="M0,85.04999999999998h192v18.900000000000002h-192Z" style="fill: #4c78a8;"></path><path d="M0,148.04999999999998h171.33333333333334v18.900000000000002h-171.33333333333334Z" style="fill: #4c78a8;"></path><path d="M0,1.049999999999983h171.33333333333334v18.900000000000002h-171.33333333333334Z" style="fill: #4c78a8;"></path><path d="M0,106.04999999999998h6.666666666666667v18.900000000000002h-6.666666666666667Z" style="fill: #4c78a8;"></path><path d="M0,274.04999999999995h20.666666666666668v18.900000000000002h-20.666666666666668Z" style="fill: #4c78a8;"></path><path d="M0,169.04999999999998h20.666666666666668v18.900000000000002h-20.666666666666668Z" style="fill: #4c78a8;"></path><path d="M0,22.049999999999983h20.666666666666668v18.900000000000002h-20.666666666666668Z" style="fill: #4c78a8;"></path><path d="M0,64.04999999999998h6v18.900000000000002h-6Z" style="fill: #4c78a8;"></path><path d="M0,190.04999999999998h2v18.900000000000002h-2Z" style="fill: #4c78a8;"></path><path d="M0,43.04999999999998h1.3333333333333335v18.900000000000002h-1.3333333333333335Z" style="fill: #4c78a8;"></path><path d="M0,127.04999999999998h1.3333333333333335v18.900000000000002h-1.3333333333333335Z" style="fill: #4c78a8;"></path><path d="M0,211.04999999999998h1.3333333333333335v18.900000000000002h-1.3333333333333335Z" style="fill: #4c78a8;"></path></g><g class="mark-group role-axis"><g transform="translate(0.5,294.5)"><path class="background" d="M0,0h0v0h0Z" style="pointer-events: none; fill: none;"></path><g><g class="mark-rule role-axis-tick" style="pointer-events: none;"><line transform="translate(0,0)" x2="0" y2="5" style="fill: none; stroke: #888; stroke-width: 1; opacity: 1;"></line><line transform="translate(33,0)" x2="0" y2="5" style="fill: none; stroke: #888; stroke-width: 1; opacity: 1;"></line><line transform="translate(67,0)" x2="0" y2="5" style="fill: none; stroke: #888; stroke-width: 1; opacity: 1;"></line><line transform="translate(100,0)" x2="0" y2="5" style="fill: none; stroke: #888; stroke-width: 1; opacity: 1;"></line><line transform="translate(133,0)" x2="0" y2="5" style="fill: none; stroke: #888; stroke-width: 1; opacity: 1;"></line><line transform="translate(167,0)" x2="0" y2="5" style="fill: none; stroke: #888; stroke-width: 1; opacity: 1;"></line><line transform="translate(200,0)" x2="0" y2="5" style="fill: none; stroke: #888; stroke-width: 1; opacity: 1;"></line></g><g class="mark-text role-axis-label" style="pointer-events: none;"><text text-anchor="start" transform="translate(0,15)" style="font: 10px sans-serif; fill: #000; opacity: 1;">0</text><text text-anchor="middle" transform="translate(33.33333333333333,15)" style="font: 10px sans-serif; fill: #000; opacity: 1;">50</text><text text-anchor="middle" transform="translate(66.66666666666666,15)" style="font: 10px sans-serif; fill: #000; opacity: 1;">100</text><text text-anchor="middle" transform="translate(100,15)" style="font: 10px sans-serif; fill: #000; opacity: 1;">150</text><text text-anchor="middle" transform="translate(133.33333333333331,15)" style="font: 10px sans-serif; fill: #000; opacity: 1;">200</text><text text-anchor="middle" transform="translate(166.66666666666669,15)" style="font: 10px sans-serif; fill: #000; opacity: 1;">250</text><text text-anchor="end" transform="translate(200,15)" style="font: 10px sans-serif; fill: #000; opacity: 1;">300</text></g><g class="mark-rule role-axis-domain" style="pointer-events: none;"><line transform="translate(0,0)" x2="200" y2="0" style="fill: none; stroke: #888; stroke-width: 1; opacity: 1;"></line></g><g class="mark-text role-axis-title" style="pointer-events: none;"><text text-anchor="middle" transform="translate(100,31)" style="font: bold 11px sans-serif; fill: #000; opacity: 1;">count</text></g></g></g></g><g class="mark-group role-axis"><g transform="translate(0.5,0.5)"><path class="background" d="M0,0h0v0h0Z" style="pointer-events: none; fill: none;"></path><g><g class="mark-rule role-axis-tick" style="pointer-events: none;"><line transform="translate(0,9)" x2="-5" y2="0" style="fill: none; stroke: #888; stroke-width: 1; opacity: 1;"></line><line transform="translate(0,30)" x2="-5" y2="0" style="fill: none; stroke: #888; stroke-width: 1; opacity: 1;"></line><line transform="translate(0,51)" x2="-5" y2="0" style="fill: none; stroke: #888; stroke-width: 1; opacity: 1;"></line><line transform="translate(0,72)" x2="-5" y2="0" style="fill: none; stroke: #888; stroke-width: 1; opacity: 1;"></line><line transform="translate(0,93)" x2="-5" y2="0" style="fill: none; stroke: #888; stroke-width: 1; opacity: 1;"></line><line transform="translate(0,114)" x2="-5" y2="0" style="fill: none; stroke: #888; stroke-width: 1; opacity: 1;"></line><line transform="translate(0,135)" x2="-5" y2="0" style="fill: none; stroke: #888; stroke-width: 1; opacity: 1;"></line><line transform="translate(0,156)" x2="-5" y2="0" style="fill: none; stroke: #888; stroke-width: 1; opacity: 1;"></line><line transform="translate(0,177)" x2="-5" y2="0" style="fill: none; stroke: #888; stroke-width: 1; opacity: 1;"></line><line transform="translate(0,198)" x2="-5" y2="0" style="fill: none; stroke: #888; stroke-width: 1; opacity: 1;"></line><line transform="translate(0,219)" x2="-5" y2="0" style="fill: none; stroke: #888; stroke-width: 1; opacity: 1;"></line><line transform="translate(0,240)" x2="-5" y2="0" style="fill: none; stroke: #888; stroke-width: 1; opacity: 1;"></line><line transform="translate(0,262)" x2="-5" y2="0" style="fill: none; stroke: #888; stroke-width: 1; opacity: 1;"></line><line transform="translate(0,282)" x2="-5" y2="0" style="fill: none; stroke: #888; stroke-width: 1; opacity: 1;"></line></g><g class="mark-text role-axis-label" style="pointer-events: none;"><text text-anchor="end" transform="translate(-7,12.499999999999984)" style="font: 10px sans-serif; fill: #000; opacity: 1;">.zip</text><text text-anchor="end" transform="translate(-7,33.499999999999986)" style="font: 10px sans-serif; fill: #000; opacity: 1;">appimage (linux)</text><text text-anchor="end" transform="translate(-7,54.499999999999986)" style="font: 10px sans-serif; fill: #000; opacity: 1;">aur</text><text text-anchor="end" transform="translate(-7,75.49999999999999)" style="font: 10px sans-serif; fill: #000; opacity: 1;">chocolatey (windows)</text><text text-anchor="end" transform="translate(-7,96.49999999999999)" style="font: 10px sans-serif; fill: #000; opacity: 1;">crates.io (and `cargo install`)</text><text text-anchor="end" transform="translate(-7,117.49999999999999)" style="font: 10px sans-serif; fill: #000; opacity: 1;">docker</text><text text-anchor="end" transform="translate(-7,138.49999999999997)" style="font: 10px sans-serif; fill: #000; opacity: 1;">docker image</text><text text-anchor="end" transform="translate(-7,159.49999999999997)" style="font: 10px sans-serif; fill: #000; opacity: 1;">downloads: .tar.gz</text><text text-anchor="end" transform="translate(-7,180.49999999999997)" style="font: 10px sans-serif; fill: #000; opacity: 1;">flatpak</text><text text-anchor="end" transform="translate(-7,201.49999999999997)" style="font: 10px sans-serif; fill: #000; opacity: 1;">freebsd ports</text><text text-anchor="end" transform="translate(-7,222.49999999999997)" style="font: 10px sans-serif; fill: #000; opacity: 1;">github</text><text text-anchor="end" transform="translate(-7,243.49999999999997)" style="font: 10px sans-serif; fill: #000; opacity: 1;">homebrew (macos, linux)</text><text text-anchor="end" transform="translate(-7,264.5)" style="font: 10px sans-serif; fill: #000; opacity: 1;">native linux repositories</text><text text-anchor="end" transform="translate(-7,285.49999999999994)" style="font: 10px sans-serif; fill: #000; opacity: 1;">snap</text></g><g class="mark-rule role-axis-domain" style="pointer-events: none;"><line transform="translate(0,0)" x2="0" y2="294" style="fill: none; stroke: #888; stroke-width: 1; opacity: 1;"></line></g></g></g></g></g></g></g></g></svg>