<svg class="marks" width="280" height="192" viewBox="0 0 280 192" version="1.1" xmlns="http://www.w3.org/2000/svg" xmlns:xlink="http://www.w3.org/1999/xlink"><g transform="translate(74,5)"><g class="mark-group role-frame root"><g transform="translate(0,0)"><path class="background" d="M0.5,0.5h200v147h-200Z" style="fill: none; stroke: #ddd;"></path><g><g class="mark-group role-axis"><g transform="translate(0.5,147.5)"><path class="background" d="M0,0h0v0h0Z" style="pointer-events: none; fill: none;"></path><g><g class="mark-rule role-axis-grid" style="pointer-events: none;"><line transform="translate(0,0)" x2="0" y2="-147" style="fill: none; stroke: #ddd; stroke-width: 1; opacity: 1;"></line><line transform="translate(29,0)" x2="0" y2="-147" style="fill: none; stroke: #ddd; stroke-width: 1; opacity: 1;"></line><line transform="translate(57,0)" x2="0" y2="-147" style="fill: none; stroke: #ddd; stroke-width: 1; opacity: 1;"></line><line transform="translate(86,0)" x2="0" y2="-147" style="fill: none; stroke: #ddd; stroke-width: 1; opacity: 1;"></line><line transform="translate(114,0)" x2="0" y2="-147" style="fill: none; stroke: #ddd; stroke-width: 1; opacity: 1;"></line><line transform="translate(143,0)" x2="0" y2="-147" style="fill: none; stroke: #ddd; stroke-width: 1; opacity: 1;"></line><line transform="translate(171,0)" x2="0" y2="-147" style="fill: none; stroke: #ddd; stroke-width: 1; opacity: 1;"></line><line transform="translate(200,0)" x2="0" y2="-147" style="fill: none; stroke: #ddd; stroke-width: 1; opacity: 1;"></line></g></g></g></g><g class="mark-rect role-mark marks"><path d="M0,64.05h189.14285714285714v18.900000000000002h-189.14285714285714Z" style="fill: #4c78a8;"></path><path d="M0,85.05h104.28571428571429v18.900000000000002h-104.28571428571429Z" style="fill: #4c78a8;"></path><path d="M0,127.05h79.42857142857143v18.900000000000002h-79.42857142857143Z" style="fill: #4c78a8;"></path><path d="M0,22.049999999999997h24.285714285714285v18.900000000000002h-24.285714285714285Z" style="fill: #4c78a8;"></path><path d="M0,43.05h13.428571428571429v18.900000000000002h-13.428571428571429Z" style="fill: #4c78a8;"></path><path d="M0,106.05h0.5714285714285714v18.900000000000002h-0.5714285714285714Z" style="fill: #4c78a8;"></path><path d="M0,1.0499999999999972h0.5714285714285714v18.900000000000002h-0.5714285714285714Z" style="fill: #4c78a8;"></path></g><g class="mark-group role-axis"><g transform="translate(0.5,147.5)"><path class="background" d="M0,0h0v0h0Z" style="pointer-events: none; fill: none;"></path><g><g class="mark-rule role-axis-tick" style="pointer-events: none;"><line transform="translate(0,0)" x2="0" y2="5" style="fill: none; stroke: #888; stroke-width: 1; opacity: 1;"></line><line transform="translate(29,0)" x2="0" y2="5" style="fill: none; stroke: #888; stroke-width: 1; opacity: 1;"></line><line transform="translate(57,0)" x2="0" y2="5" style="fill: none; stroke: #888; stroke-width: 1; opacity: 1;"></line><line transform="translate(86,0)" x2="0" y2="5" style="fill: none; stroke: #888; stroke-width: 1; opacity: 1;"></line><line transform="translate(114,0)" x2="0" y2="5" style="fill: none; stroke: #888; stroke-width: 1; opacity: 1;"></line><line transform="translate(143,0)" x2="0" y2="5" style="fill: none; stroke: #888; stroke-width: 1; opacity: 1;"></line><line transform="translate(171,0)" x2="0" y2="5" style="fill: none; stroke: #888; stroke-width: 1; opacity: 1;"></line><line transform="translate(200,0)" x2="0" y2="5" style="fill: none; stroke: #888; stroke-width: 1; opacity: 1;"></line></g><g class="mark-text role-axis-label" style="pointer-events: none;"><text text-anchor="start" transform="translate(0,15)" style="font: 10px sans-serif; fill: #000; opacity: 1;">0</text><text text-anchor="middle" transform="translate(28.57142857142857,15)" style="font: 10px sans-serif; fill: #000; opacity: 1;">100</text><text text-anchor="middle" transform="translate(57.14285714285714,15)" style="font: 10px sans-serif; fill: #000; opacity: 1;">200</text><text text-anchor="middle" transform="translate(85.71428571428571,15)" style="font: 10px sans-serif; fill: #000; opacity: 1;">300</text><text text-anchor="middle" transform="translate(114.28571428571428,15)" style="font: 10px sans-serif; fill: #000; opacity: 1;">400</text><text text-anchor="middle" transform="translate(142.85714285714286,15)" style="font: 10px sans-serif; fill: #000; opacity: 1;">500</text><text text-anchor="middle" transform="translate(171.42857142857142,15)" style="font: 10px sans-serif; fill: #000; opacity: 1;">600</text><text text-anchor="end" transform="translate(200,15)" style="font: 10px sans-serif; fill: #000; opacity: 1;">700</text></g><g class="mark-rule role-axis-domain" style="pointer-events: none;"><line transform="translate(0,0)" x2="200" y2="0" style="fill: none; stroke: #888; stroke-width: 1; opacity: 1;"></line></g><g class="mark-text role-axis-title" style="pointer-events: none;"><text text-anchor="middle" transform="translate(100,31)" style="font: bold 11px sans-serif; fill: #000; opacity: 1;">count</text></g></g></g></g><g class="mark-group role-axis"><g transform="translate(0.5,0.5)"><path class="background" d="M0,0h0v0h0Z" style="pointer-events: none; fill: none;"></path><g><g class="mark-rule role-axis-tick" style="pointer-events: none;"><line transform="translate(0,9)" x2="-5" y2="0" style="fill: none; stroke: #888; stroke-width: 1; opacity: 1;"></line><line transform="translate(0,31)" x2="-5" y2="0" style="fill: none; stroke: #888; stroke-width: 1; opacity: 1;"></line><line transform="translate(0,52)" x2="-5" y2="0" style="fill: none; stroke: #888; stroke-width: 1; opacity: 1;"></line><line transform="translate(0,73)" x2="-5" y2="0" style="fill: none; stroke: #888; stroke-width: 1; opacity: 1;"></line><line transform="translate(0,94)" x2="-5" y2="0" style="fill: none; stroke: #888; stroke-width: 1; opacity: 1;"></line><line transform="translate(0,115)" x2="-5" y2="0" style="fill: none; stroke: #888; stroke-width: 1; opacity: 1;"></line><line transform="translate(0,136)" x2="-5" y2="0" style="fill: none; stroke: #888; stroke-width: 1; opacity: 1;"></line></g><g class="mark-text role-axis-label" style="pointer-events: none;"><text text-anchor="end" transform="translate(-7,12.499999999999998)" style="font: 10px sans-serif; fill: #000; opacity: 1;">android</text><text text-anchor="end" transform="translate(-7,33.5)" style="font: 10px sans-serif; fill: #000; opacity: 1;">bsd variant(s)</text><text text-anchor="end" transform="translate(-7,54.5)" style="font: 10px sans-serif; fill: #000; opacity: 1;">embedded</text><text text-anchor="end" transform="translate(-7,75.5)" style="font: 10px sans-serif; fill: #000; opacity: 1;">linux</text><text text-anchor="end" transform="translate(-7,96.5)" style="font: 10px sans-serif; fill: #000; opacity: 1;">macos</text><text text-anchor="end" transform="translate(-7,117.5)" style="font: 10px sans-serif; fill: #000; opacity: 1;">redox</text><text text-anchor="end" transform="translate(-7,138.5)" style="font: 10px sans-serif; fill: #000; opacity: 1;">windows</text></g><g class="mark-rule role-axis-domain" style="pointer-events: none;"><line transform="translate(0,0)" x2="0" y2="147" style="fill: none; stroke: #888; stroke-width: 1; opacity: 1;"></line></g></g></g></g></g></g></g></g></svg>