<svg class="marks" width="304" height="276" viewBox="0 0 304 276" version="1.1" xmlns="http://www.w3.org/2000/svg" xmlns:xlink="http://www.w3.org/1999/xlink"><g transform="translate(99,5)"><g class="mark-group role-frame root"><g transform="translate(0,0)"><path class="background" d="M0.5,0.5h200v231h-200Z" style="fill: none; stroke: #ddd;"></path><g><g class="mark-group role-axis"><g transform="translate(0.5,231.5)"><path class="background" d="M0,0h0v0h0Z" style="pointer-events: none; fill: none;"></path><g><g class="mark-rule role-axis-grid" style="pointer-events: none;"><line transform="translate(0,0)" x2="0" y2="-231" style="fill: none; stroke: #ddd; stroke-width: 1; opacity: 1;"></line><line transform="translate(36,0)" x2="0" y2="-231" style="fill: none; stroke: #ddd; stroke-width: 1; opacity: 1;"></line><line transform="translate(71,0)" x2="0" y2="-231" style="fill: none; stroke: #ddd; stroke-width: 1; opacity: 1;"></line><line transform="translate(107,0)" x2="0" y2="-231" style="fill: none; stroke: #ddd; stroke-width: 1; opacity: 1;"></line><line transform="translate(143,0)" x2="0" y2="-231" style="fill: none; stroke: #ddd; stroke-width: 1; opacity: 1;"></line><line transform="translate(179,0)" x2="0" y2="-231" style="fill: none; stroke: #ddd; stroke-width: 1; opacity: 1;"></line></g></g></g></g><g class="mark-rect role-mark marks"><path d="M0,85.05h196.42857142857142v18.900000000000002h-196.42857142857142Z" style="fill: #4c78a8;"></path><path d="M0,190.05h40v18.900000000000002h-40Z" style="fill: #4c78a8;"></path><path d="M0,43.05h154.2857142857143v18.900000000000002h-154.2857142857143Z" style="fill: #4c78a8;"></path><path d="M0,169.05h47.85714285714286v18.900000000000002h-47.85714285714286Z" style="fill: #4c78a8;"></path><path d="M0,127.05h45.714285714285715v18.900000000000002h-45.714285714285715Z" style="fill: #4c78a8;"></path><path d="M0,211.05h38.57142857142858v18.900000000000002h-38.57142857142858Z" style="fill: #4c78a8;"></path><path d="M0,22.049999999999997h4.285714285714286v18.900000000000002h-4.285714285714286Z" style="fill: #4c78a8;"></path><path d="M0,106.05h10.714285714285714v18.900000000000002h-10.714285714285714Z" style="fill: #4c78a8;"></path><path d="M0,148.05h2.857142857142857v18.900000000000002h-2.857142857142857Z" style="fill: #4c78a8;"></path><path d="M0,1.0499999999999972h2.142857142857143v18.900000000000002h-2.142857142857143Z" style="fill: #4c78a8;"></path><path d="M0,64.05h6.428571428571428v18.900000000000002h-6.428571428571428Z" style="fill: #4c78a8;"></path></g><g class="mark-group role-axis"><g transform="translate(0.5,231.5)"><path class="background" d="M0,0h0v0h0Z" style="pointer-events: none; fill: none;"></path><g><g class="mark-rule role-axis-tick" style="pointer-events: none;"><line transform="translate(0,0)" x2="0" y2="5" style="fill: none; stroke: #888; stroke-width: 1; opacity: 1;"></line><line transform="translate(36,0)" x2="0" y2="5" style="fill: none; stroke: #888; stroke-width: 1; opacity: 1;"></line><line transform="translate(71,0)" x2="0" y2="5" style="fill: none; stroke: #888; stroke-width: 1; opacity: 1;"></line><line transform="translate(107,0)" x2="0" y2="5" style="fill: none; stroke: #888; stroke-width: 1; opacity: 1;"></line><line transform="translate(143,0)" x2="0" y2="5" style="fill: none; stroke: #888; stroke-width: 1; opacity: 1;"></line><line transform="translate(179,0)" x2="0" y2="5" style="fill: none; stroke: #888; stroke-width: 1; opacity: 1;"></line></g><g class="mark-text role-axis-label" style="pointer-events: none;"><text text-anchor="start" transform="translate(0,15)" style="font: 10px sans-serif; fill: #000; opacity: 1;">0</text><text text-anchor="middle" transform="translate(35.714285714285715,15)" style="font: 10px sans-serif; fill: #000; opacity: 1;">50</text><text text-anchor="middle" transform="translate(71.42857142857143,15)" style="font: 10px sans-serif; fill: #000; opacity: 1;">100</text><text text-anchor="middle" transform="translate(107.14285714285714,15)" style="font: 10px sans-serif; fill: #000; opacity: 1;">150</text><text text-anchor="middle" transform="translate(142.85714285714286,15)" style="font: 10px sans-serif; fill: #000; opacity: 1;">200</text><text text-anchor="middle" transform="translate(178.57142857142858,15)" style="font: 10px sans-serif; fill: #000; opacity: 1;">250</text></g><g class="mark-rule role-axis-domain" style="pointer-events: none;"><line transform="translate(0,0)" x2="200" y2="0" style="fill: none; stroke: #888; stroke-width: 1; opacity: 1;"></line></g><g class="mark-text role-axis-title" style="pointer-events: none;"><text text-anchor="middle" transform="translate(100,31)" style="font: bold 11px sans-serif; fill: #000; opacity: 1;">count</text></g></g></g></g><g class="mark-group role-axis"><g transform="translate(0.5,0.5)"><path class="background" d="M0,0h0v0h0Z" style="pointer-events: none; fill: none;"></path><g><g class="mark-rule role-axis-tick" style="pointer-events: none;"><line transform="translate(0,9)" x2="-5" y2="0" style="fill: none; stroke: #888; stroke-width: 1; opacity: 1;"></line><line transform="translate(0,31)" x2="-5" y2="0" style="fill: none; stroke: #888; stroke-width: 1; opacity: 1;"></line><line transform="translate(0,52)" x2="-5" y2="0" style="fill: none; stroke: #888; stroke-width: 1; opacity: 1;"></line><line transform="translate(0,73)" x2="-5" y2="0" style="fill: none; stroke: #888; stroke-width: 1; opacity: 1;"></line><line transform="translate(0,94)" x2="-5" y2="0" style="fill: none; stroke: #888; stroke-width: 1; opacity: 1;"></line><line transform="translate(0,115)" x2="-5" y2="0" style="fill: none; stroke: #888; stroke-width: 1; opacity: 1;"></line><line transform="translate(0,136)" x2="-5" y2="0" style="fill: none; stroke: #888; stroke-width: 1; opacity: 1;"></line><line transform="translate(0,157)" x2="-5" y2="0" style="fill: none; stroke: #888; stroke-width: 1; opacity: 1;"></line><line transform="translate(0,178)" x2="-5" y2="0" style="fill: none; stroke: #888; stroke-width: 1; opacity: 1;"></line><line transform="translate(0,199)" x2="-5" y2="0" style="fill: none; stroke: #888; stroke-width: 1; opacity: 1;"></line><line transform="translate(0,220)" x2="-5" y2="0" style="fill: none; stroke: #888; stroke-width: 1; opacity: 1;"></line></g><g class="mark-text role-axis-label" style="pointer-events: none;"><text text-anchor="end" transform="translate(-7,12.499999999999998)" style="font: 10px sans-serif; fill: #000; opacity: 1;">binary bloat</text><text text-anchor="end" transform="translate(-7,33.5)" style="font: 10px sans-serif; fill: #000; opacity: 1;">compile times</text><text text-anchor="end" transform="translate(-7,54.5)" style="font: 10px sans-serif; fill: #000; opacity: 1;">documentation</text><text text-anchor="end" transform="translate(-7,75.5)" style="font: 10px sans-serif; fill: #000; opacity: 1;">ergonomics</text><text text-anchor="end" transform="translate(-7,96.5)" style="font: 10px sans-serif; fill: #000; opacity: 1;">examples</text><text text-anchor="end" transform="translate(-7,117.5)" style="font: 10px sans-serif; fill: #000; opacity: 1;">features</text><text text-anchor="end" transform="translate(-7,138.5)" style="font: 10px sans-serif; fill: #000; opacity: 1;">maintenance</text><text text-anchor="end" transform="translate(-7,159.5)" style="font: 10px sans-serif; fill: #000; opacity: 1;">maturity</text><text text-anchor="end" transform="translate(-7,180.5)" style="font: 10px sans-serif; fill: #000; opacity: 1;">platform availability</text><text text-anchor="end" transform="translate(-7,201.5)" style="font: 10px sans-serif; fill: #000; opacity: 1;">testing</text><text text-anchor="end" transform="translate(-7,222.5)" style="font: 10px sans-serif; fill: #000; opacity: 1;">work with no_std</text></g><g class="mark-rule role-axis-domain" style="pointer-events: none;"><line transform="translate(0,0)" x2="0" y2="231" style="fill: none; stroke: #888; stroke-width: 1; opacity: 1;"></line></g></g></g></g></g></g></g></g></svg>