<svg class="marks" width="396" height="297" viewBox="0 0 396 297" version="1.1" xmlns="http://www.w3.org/2000/svg" xmlns:xlink="http://www.w3.org/1999/xlink"><g transform="translate(191,5)"><g class="mark-group role-frame root"><g transform="translate(0,0)"><path class="background" d="M0.5,0.5h200v252h-200Z" style="fill: none; stroke: #ddd;"></path><g><g class="mark-group role-axis"><g transform="translate(0.5,252.5)"><path class="background" d="M0,0h0v0h0Z" style="pointer-events: none; fill: none;"></path><g><g class="mark-rule role-axis-grid" style="pointer-events: none;"><line transform="translate(0,0)" x2="0" y2="-252" style="fill: none; stroke: #ddd; stroke-width: 1; opacity: 1;"></line><line transform="translate(31,0)" x2="0" y2="-252" style="fill: none; stroke: #ddd; stroke-width: 1; opacity: 1;"></line><line transform="translate(62,0)" x2="0" y2="-252" style="fill: none; stroke: #ddd; stroke-width: 1; opacity: 1;"></line><line transform="translate(92,0)" x2="0" y2="-252" style="fill: none; stroke: #ddd; stroke-width: 1; opacity: 1;"></line><line transform="translate(123,0)" x2="0" y2="-252" style="fill: none; stroke: #ddd; stroke-width: 1; opacity: 1;"></line><line transform="translate(154,0)" x2="0" y2="-252" style="fill: none; stroke: #ddd; stroke-width: 1; opacity: 1;"></line><line transform="translate(185,0)" x2="0" y2="-252" style="fill: none; stroke: #ddd; stroke-width: 1; opacity: 1;"></line></g></g></g></g><g class="mark-rect role-mark marks"><path d="M0,127.05h124.92307692307692v18.900000000000002h-124.92307692307692Z" style="fill: #4c78a8;"></path><path d="M0,1.0499999999999972h141.23076923076923v18.900000000000002h-141.23076923076923Z" style="fill: #4c78a8;"></path><path d="M0,148.05h196.92307692307693v18.900000000000002h-196.92307692307693Z" style="fill: #4c78a8;"></path><path d="M0,43.05h105.53846153846153v18.900000000000002h-105.53846153846153Z" style="fill: #4c78a8;"></path><path d="M0,211.05h28.923076923076923v18.900000000000002h-28.923076923076923Z" style="fill: #4c78a8;"></path><path d="M0,232.05h3.6923076923076925v18.900000000000002h-3.6923076923076925Z" style="fill: #4c78a8;"></path><path d="M0,64.05h36.61538461538461v18.900000000000002h-36.61538461538461Z" style="fill: #4c78a8;"></path><path d="M0,22.049999999999997h10.153846153846153v18.900000000000002h-10.153846153846153Z" style="fill: #4c78a8;"></path><path d="M0,106.05h0.9230769230769231v18.900000000000002h-0.9230769230769231Z" style="fill: #4c78a8;"></path><path d="M0,169.05h0.6153846153846154v18.900000000000002h-0.6153846153846154Z" style="fill: #4c78a8;"></path><path d="M0,85.05h0.9230769230769231v18.900000000000002h-0.9230769230769231Z" style="fill: #4c78a8;"></path><path d="M0,190.05h0.6153846153846154v18.900000000000002h-0.6153846153846154Z" style="fill: #4c78a8;"></path></g><g class="mark-group role-axis"><g transform="translate(0.5,252.5)"><path class="background" d="M0,0h0v0h0Z" style="pointer-events: none; fill: none;"></path><g><g class="mark-rule role-axis-tick" style="pointer-events: none;"><line transform="translate(0,0)" x2="0" y2="5" style="fill: none; stroke: #888; stroke-width: 1; opacity: 1;"></line><line transform="translate(31,0)" x2="0" y2="5" style="fill: none; stroke: #888; stroke-width: 1; opacity: 1;"></line><line transform="translate(62,0)" x2="0" y2="5" style="fill: none; stroke: #888; stroke-width: 1; opacity: 1;"></line><line transform="translate(92,0)" x2="0" y2="5" style="fill: none; stroke: #888; stroke-width: 1; opacity: 1;"></line><line transform="translate(123,0)" x2="0" y2="5" style="fill: none; stroke: #888; stroke-width: 1; opacity: 1;"></line><line transform="translate(154,0)" x2="0" y2="5" style="fill: none; stroke: #888; stroke-width: 1; opacity: 1;"></line><line transform="translate(185,0)" x2="0" y2="5" style="fill: none; stroke: #888; stroke-width: 1; opacity: 1;"></line></g><g class="mark-text role-axis-label" style="pointer-events: none;"><text text-anchor="start" transform="translate(0,15)" style="font: 10px sans-serif; fill: #000; opacity: 1;">0</text><text text-anchor="middle" transform="translate(30.76923076923077,15)" style="font: 10px sans-serif; fill: #000; opacity: 1;">100</text><text text-anchor="middle" transform="translate(61.53846153846154,15)" style="font: 10px sans-serif; fill: #000; opacity: 1;">200</text><text text-anchor="middle" transform="translate(92.3076923076923,15)" style="font: 10px sans-serif; fill: #000; opacity: 1;">300</text><text text-anchor="middle" transform="translate(123.07692307692308,15)" style="font: 10px sans-serif; fill: #000; opacity: 1;">400</text><text text-anchor="middle" transform="translate(153.84615384615387,15)" style="font: 10px sans-serif; fill: #000; opacity: 1;">500</text><text text-anchor="middle" transform="translate(184.6153846153846,15)" style="font: 10px sans-serif; fill: #000; opacity: 1;">600</text></g><g class="mark-rule role-axis-domain" style="pointer-events: none;"><line transform="translate(0,0)" x2="200" y2="0" style="fill: none; stroke: #888; stroke-width: 1; opacity: 1;"></line></g><g class="mark-text role-axis-title" style="pointer-events: none;"><text text-anchor="middle" transform="translate(100,31)" style="font: bold 11px sans-serif; fill: #000; opacity: 1;">count</text></g></g></g></g><g class="mark-group role-axis"><g transform="translate(0.5,0.5)"><path class="background" d="M0,0h0v0h0Z" style="pointer-events: none; fill: none;"></path><g><g class="mark-rule role-axis-tick" style="pointer-events: none;"><line transform="translate(0,9)" x2="-5" y2="0" style="fill: none; stroke: #888; stroke-width: 1; opacity: 1;"></line><line transform="translate(0,31)" x2="-5" y2="0" style="fill: none; stroke: #888; stroke-width: 1; opacity: 1;"></line><line transform="translate(0,52)" x2="-5" y2="0" style="fill: none; stroke: #888; stroke-width: 1; opacity: 1;"></line><line transform="translate(0,73)" x2="-5" y2="0" style="fill: none; stroke: #888; stroke-width: 1; opacity: 1;"></line><line transform="translate(0,94)" x2="-5" y2="0" style="fill: none; stroke: #888; stroke-width: 1; opacity: 1;"></line><line transform="translate(0,115)" x2="-5" y2="0" style="fill: none; stroke: #888; stroke-width: 1; opacity: 1;"></line><line transform="translate(0,136)" x2="-5" y2="0" style="fill: none; stroke: #888; stroke-width: 1; opacity: 1;"></line><line transform="translate(0,157)" x2="-5" y2="0" style="fill: none; stroke: #888; stroke-width: 1; opacity: 1;"></line><line transform="translate(0,178)" x2="-5" y2="0" style="fill: none; stroke: #888; stroke-width: 1; opacity: 1;"></line><line transform="translate(0,199)" x2="-5" y2="0" style="fill: none; stroke: #888; stroke-width: 1; opacity: 1;"></line><line transform="translate(0,220)" x2="-5" y2="0" style="fill: none; stroke: #888; stroke-width: 1; opacity: 1;"></line><line transform="translate(0,241)" x2="-5" y2="0" style="fill: none; stroke: #888; stroke-width: 1; opacity: 1;"></line></g><g class="mark-text role-axis-label" style="pointer-events: none;"><text text-anchor="end" transform="translate(-7,12.499999999999998)" style="font: 10px sans-serif; fill: #000; opacity: 1;">cargo/build system</text><text text-anchor="end" transform="translate(-7,33.5)" style="font: 10px sans-serif; fill: #000; opacity: 1;">ci</text><text text-anchor="end" transform="translate(-7,54.5)" style="font: 10px sans-serif; fill: #000; opacity: 1;">crates/ecosystem</text><text text-anchor="end" transform="translate(-7,75.5)" style="font: 10px sans-serif; fill: #000; opacity: 1;">documentation/guides</text><text text-anchor="end" transform="translate(-7,96.5)" style="font: 10px sans-serif; fill: #000; opacity: 1;">ease of distribution</text><text text-anchor="end" transform="translate(-7,117.5)" style="font: 10px sans-serif; fill: #000; opacity: 1;">learning rust</text><text text-anchor="end" transform="translate(-7,138.5)" style="font: 10px sans-serif; fill: #000; opacity: 1;">runtime performance</text><text text-anchor="end" transform="translate(-7,159.5)" style="font: 10px sans-serif; fill: #000; opacity: 1;">rust language itself</text><text text-anchor="end" transform="translate(-7,180.5)" style="font: 10px sans-serif; fill: #000; opacity: 1;">safety</text><text text-anchor="end" transform="translate(-7,201.5)" style="font: 10px sans-serif; fill: #000; opacity: 1;">static binaries</text><text text-anchor="end" transform="translate(-7,222.5)" style="font: 10px sans-serif; fill: #000; opacity: 1;">testing</text><text text-anchor="end" transform="translate(-7,243.5)" style="font: 10px sans-serif; fill: #000; opacity: 1;">the app was already written in rust wh…</text></g><g class="mark-rule role-axis-domain" style="pointer-events: none;"><line transform="translate(0,0)" x2="0" y2="252" style="fill: none; stroke: #888; stroke-width: 1; opacity: 1;"></line></g></g></g></g></g></g></g></g></svg>