<svg xmlns="http://www.w3.org/2000/svg" xmlns:xlink="http://www.w3.org/1999/xlink" width="800" height="434.2"><rect width="800" height="434.2" rx="0" ry="0" class="a"/><svg height="434.2" viewBox="0 0 80 43.42" width="800" xmlns="http://www.w3.org/2000/svg" xmlns:xlink="http://www.w3.org/1999/xlink"><style>@keyframes j{0%{transform:translateX(0)}.3%{transform:translateX(-80px)}5.4%{transform:translateX(-160px)}6.4%{transform:translateX(-240px)}8%{transform:translateX(-320px)}9.8%{transform:translateX(-400px)}13%{transform:translateX(-480px)}14.3%{transform:translateX(-560px)}15.2%{transform:translateX(-640px)}16.4%{transform:translateX(-720px)}18.8%{transform:translateX(-800px)}22.3%{transform:translateX(-880px)}23.6%{transform:translateX(-960px)}25.8%{transform:translateX(-1040px)}25.9%{transform:translateX(-1200px)}30.6%{transform:translateX(-1280px)}33.2%{transform:translateX(-1360px)}35.2%{transform:translateX(-1440px)}36.6%{transform:translateX(-1520px)}37.6%{transform:translateX(-1600px)}38.9%{transform:translateX(-1680px)}42.8%{transform:translateX(-1920px)}49.4%{transform:translateX(-2000px)}50.4%{transform:translateX(-2080px)}51.1%{transform:translateX(-2160px)}52.4%{transform:translateX(-2240px)}53.3%{transform:translateX(-2320px)}54.8%{transform:translateX(-2400px)}55.6%{transform:translateX(-2480px)}56.5%{transform:translateX(-2560px)}57.7%{transform:translateX(-2640px)}60.3%{transform:translateX(-2720px)}61.1%{transform:translateX(-2880px)}61.2%{transform:translateX(-2960px)}61.4%{transform:translateX(-3120px)}70.4%{transform:translateX(-3200px)}72.7%{transform:translateX(-3280px)}74.1%{transform:translateX(-3360px)}75.1%{transform:translateX(-3440px)}76.4%{transform:translateX(-3520px)}80.2%{transform:translateX(-3600px)}81%{transform:translateX(-3680px)}83.2%{transform:translateX(-3760px)}83.9%{transform:translateX(-3840px)}85%{transform:translateX(-3920px)}86.1%{transform:translateX(-4000px)}88.2%{transform:translateX(-4080px)}89%{transform:translateX(-4240px)}89.1%{transform:translateX(-4320px)}89.3%{transform:translateX(-4480px)}to{transform:translateX(-4560px)}}.a{fill:#282d35}.c{fill:#dbab79;font-weight:700}.d{fill:#a8cc8c}.e{fill:#b9c0cb}.f,.g{fill:#a8cc8c;font-weight:700}.g{fill:#e88388}</style><g font-size="1.67" font-family="Monaco,Consolas,Menlo,'Bitstream Vera Sans Mono','Powerline Symbols',monospace"><defs><symbol id="1"><text y="1.67" class="c">11:23:46</text><text x="9.018" y="1.67" class="d">pascal:~/Code/grrs</text><text x="28.056" y="1.67" class="d">&gt;</text><text x="30.06" y="1.67" class="e">cat</text></symbol><symbol id="2"><text y="1.67" class="c">11:23:46</text><text x="9.018" y="1.67" class="d">pascal:~/Code/grrs</text><text x="28.056" y="1.67" class="d">&gt;</text><text x="30.06" y="1.67" class="e">cat</text><text x="34.068" y="1.67" class="e">Cargo.toml</text></symbol><symbol id="3"><text y="1.67" class="e">cargo-features</text><text x="15.03" y="1.67" class="e">=</text><text x="17.034" y="1.67" class="e">[&quot;edition&quot;]</text></symbol><symbol id="4"><text y="1.67" class="e">[package]</text></symbol><symbol id="5"><text y="1.67" class="e">name</text><text x="5.01" y="1.67" class="e">=</text><text x="7.014" y="1.67" class="e">&quot;grrs&quot;</text></symbol><symbol id="6"><text y="1.67" class="e">version</text><text x="8.016" y="1.67" class="e">=</text><text x="10.02" y="1.67" class="e">&quot;0.1.0&quot;</text></symbol><symbol id="7"><text y="1.67" class="e">authors</text><text x="8.016" y="1.67" class="e">=</text><text x="10.02" y="1.67" class="e">[&quot;Pascal</text><text x="19.038" y="1.67" class="e">Hertleif</text><text x="28.056" y="1.67" class="e">&lt;killercup@gmail.com&gt;&quot;]</text></symbol><symbol id="8"><text y="1.67" class="e">edition</text><text x="8.016" y="1.67" class="e">=</text><text x="10.02" y="1.67" class="e">&quot;2018&quot;</text></symbol><symbol id="9"><text y="1.67" class="e">[dependencies]</text></symbol><symbol id="10"><text y="1.67" class="e">structopt</text><text x="10.02" y="1.67" class="e">=</text><text x="12.024" y="1.67" class="e">&quot;0.2.10&quot;</text></symbol><symbol id="11"><text y="1.67" class="c">11:23:49</text><text x="9.018" y="1.67" class="d">pascal:~/Code/grrs</text><text x="28.056" y="1.67" class="d">&gt;</text><text x="30.06" y="1.67" class="e">cat</text><text x="34.068" y="1.67" class="e">src/main.rs</text></symbol><symbol id="12"><text y="1.67" class="e">use</text><text x="4.008" y="1.67" class="e">structopt::StructOpt;</text></symbol><symbol id="13"><text y="1.67" class="e">#[derive(StructOpt)]</text></symbol><symbol id="14"><text y="1.67" class="e">struct</text><text x="7.014" y="1.67" class="e">Cli</text><text x="11.022" y="1.67" class="e">{</text></symbol><symbol id="15"><text x="4.008" y="1.67" class="e">pattern:</text><text x="13.026" y="1.67" class="e">String,</text></symbol><symbol id="16"><text x="4.008" y="1.67" class="e">path:</text><text x="10.02" y="1.67" class="e">String,</text></symbol><symbol id="17"><text y="1.67" class="e">}</text></symbol><symbol id="18"><text y="1.67" class="e">fn</text><text x="3.006" y="1.67" class="e">main()</text><text x="10.02" y="1.67" class="e">{</text></symbol><symbol id="19"><text x="4.008" y="1.67" class="e">let</text><text x="8.016" y="1.67" class="e">args</text><text x="13.026" y="1.67" class="e">=</text><text x="15.03" y="1.67" class="e">Cli::from_args();</text></symbol><symbol id="20"><text y="1.67" class="c">11:23:51</text><text x="9.018" y="1.67" class="d">pascal:~/Code/grrs</text><text x="28.056" y="1.67" class="d">&gt;</text><text x="30.06" y="1.67" class="e">cargo</text></symbol><symbol id="21"><text y="1.67" class="c">11:23:51</text><text x="9.018" y="1.67" class="d">pascal:~/Code/grrs</text><text x="28.056" y="1.67" class="d">&gt;</text><text x="30.06" y="1.67" class="e">cargo</text><text x="36.072" y="1.67" class="e">run</text></symbol><symbol id="22"><text x="4.008" y="1.67" class="f">Finished</text><text x="13.026" y="1.67" class="e">dev</text><text x="17.034" y="1.67" class="e">[unoptimized</text><text x="30.06" y="1.67" class="e">+</text><text x="32.064" y="1.67" class="e">debuginfo]</text><text x="43.086" y="1.67" class="e">target(s)</text><text x="53.106" y="1.67" class="e">in</text><text x="56.112" y="1.67" class="e">0.05s</text></symbol><symbol id="23"><text x="5.01" y="1.67" class="f">Running</text><text x="13.026" y="1.67" class="e">`target/debug/grrs`</text></symbol><symbol id="24"><text y="1.67" class="g">error:</text><text x="7.014" y="1.67" class="e">The</text><text x="11.022" y="1.67" class="e">following</text><text x="21.042" y="1.67" class="e">required</text><text x="30.06" y="1.67" class="e">arguments</text><text x="40.08" y="1.67" class="e">were</text><text x="45.09" y="1.67" class="e">not</text><text x="49.098" y="1.67" class="e">provided:</text></symbol><symbol id="25"><text x="4.008" y="1.67" class="g">&lt;pattern&gt;</text></symbol><symbol id="26"><text x="4.008" y="1.67" class="g">&lt;path&gt;</text></symbol><symbol id="27"><text y="1.67" class="e">USAGE:</text></symbol><symbol id="28"><text x="4.008" y="1.67" class="e">grrs</text><text x="9.018" y="1.67" class="e">&lt;pattern&gt;</text><text x="19.038" y="1.67" class="e">&lt;path&gt;</text></symbol><symbol id="29"><text y="1.67" class="e">For</text><text x="4.008" y="1.67" class="e">more</text><text x="9.018" y="1.67" class="e">information</text><text x="21.042" y="1.67" class="e">try</text><text x="25.05" y="1.67" class="d">--help</text></symbol><symbol id="30"><text y="1.67" class="c">11:23:54</text><text x="9.018" y="1.67" class="d">pascal:~/Code/grrs</text><text x="28.056" y="1.67" class="d">&gt;</text><text x="30.06" y="1.67" class="e">cargo</text><text x="36.072" y="1.67" class="e">run</text></symbol><symbol id="31"><text y="1.67" class="c">11:23:54</text><text x="9.018" y="1.67" class="d">pascal:~/Code/grrs</text><text x="28.056" y="1.67" class="d">&gt;</text><text x="30.06" y="1.67" class="e">cargo</text><text x="36.072" y="1.67" class="e">run</text><text x="40.08" y="1.67" class="e">--</text></symbol><symbol id="32"><text y="1.67" class="c">11:23:54</text><text x="9.018" y="1.67" class="d">pascal:~/Code/grrs</text><text x="28.056" y="1.67" class="d">&gt;</text><text x="30.06" y="1.67" class="e">cargo</text><text x="36.072" y="1.67" class="e">run</text><text x="40.08" y="1.67" class="e">--</text><text x="43.086" y="1.67" class="e">--help</text></symbol><symbol id="33"><text x="4.008" y="1.67" class="f">Finished</text><text x="13.026" y="1.67" class="e">dev</text><text x="17.034" y="1.67" class="e">[unoptimized</text><text x="30.06" y="1.67" class="e">+</text><text x="32.064" y="1.67" class="e">debuginfo]</text><text x="43.086" y="1.67" class="e">target(s)</text><text x="53.106" y="1.67" class="e">in</text><text x="56.112" y="1.67" class="e">0.06s</text></symbol><symbol id="34"><text x="5.01" y="1.67" class="f">Running</text><text x="13.026" y="1.67" class="e">`target/debug/grrs</text><text x="32.064" y="1.67" class="e">--help`</text></symbol><symbol id="35"><text y="1.67" class="e">grrs</text><text x="5.01" y="1.67" class="e">0.1.0</text></symbol><symbol id="36"><text y="1.67" class="e">Pascal</text><text x="7.014" y="1.67" class="e">Hertleif</text><text x="16.032" y="1.67" class="e">&lt;killercup@gmail.com&gt;</text></symbol><symbol id="37"><text y="1.67" class="e">FLAGS:</text></symbol><symbol id="38"><text x="4.008" y="1.67" class="e">-h,</text><text x="8.016" y="1.67" class="e">--help</text><text x="21.042" y="1.67" class="e">Prints</text><text x="28.056" y="1.67" class="e">help</text><text x="33.066" y="1.67" class="e">information</text></symbol><symbol id="39"><text x="4.008" y="1.67" class="e">-V,</text><text x="8.016" y="1.67" class="e">--version</text><text x="21.042" y="1.67" class="e">Prints</text><text x="28.056" y="1.67" class="e">version</text><text x="36.072" y="1.67" class="e">information</text></symbol><symbol id="40"><text y="1.67" class="e">ARGS:</text></symbol><symbol id="41"><text x="4.008" y="1.67" class="e">&lt;pattern&gt;</text></symbol><symbol id="42"><text x="4.008" y="1.67" class="e">&lt;path&gt;</text></symbol><symbol id="a"><path fill="transparent" d="M0 0h80v21H0z"/></symbol><symbol id="b"><path fill="#6f7683" d="M0 0h1.102v2.171H0z"/></symbol></defs><path class="a" d="M0 0h80v43.42H0z"/><g style="animation-duration:12.20045s;animation-iteration-count:infinite;animation-name:j;animation-timing-function:steps(1,end)"><svg width="4640"><svg><use xlink:href="#a"/><use xlink:href="#b" x="-.004"/></svg><svg x="80"><use xlink:href="#a"/><use xlink:href="#b" x="29.996"/><text y="1.67" class="c">11:23:46</text><text x="9.018" y="1.67" class="d">pascal:~/Code/grrs</text><text x="28.056" y="1.67" class="d">&gt;</text></svg><svg x="160"><use xlink:href="#a"/><use xlink:href="#b" x="30.996"/><text y="1.67" class="c">11:23:46</text><text x="9.018" y="1.67" class="d">pascal:~/Code/grrs</text><text x="28.056" y="1.67" class="d">&gt;</text><text x="30.06" y="1.67" class="e">c</text></svg><svg x="240"><use xlink:href="#a"/><use xlink:href="#b" x="31.996"/><text y="1.67" class="c">11:23:46</text><text x="9.018" y="1.67" class="d">pascal:~/Code/grrs</text><text x="28.056" y="1.67" class="d">&gt;</text><text x="30.06" y="1.67" class="e">ca</text></svg><svg x="320"><use xlink:href="#a"/><use xlink:href="#b" x="32.996"/><use xlink:href="#1"/></svg><svg x="400"><use xlink:href="#a"/><use xlink:href="#b" x="33.996"/><use xlink:href="#1"/></svg><svg x="480"><use xlink:href="#a"/><use xlink:href="#b" x="34.996"/><text y="1.67" class="c">11:23:46</text><text x="9.018" y="1.67" class="d">pascal:~/Code/grrs</text><text x="28.056" y="1.67" class="d">&gt;</text><text x="30.06" y="1.67" class="e">cat</text><text x="34.068" y="1.67" class="e">C</text></svg><svg x="560"><use xlink:href="#a"/><use xlink:href="#b" x="35.996"/><text y="1.67" class="c">11:23:46</text><text x="9.018" y="1.67" class="d">pascal:~/Code/grrs</text><text x="28.056" y="1.67" class="d">&gt;</text><text x="30.06" y="1.67" class="e">cat</text><text x="34.068" y="1.67" class="e">Ca</text></svg><svg x="640"><use xlink:href="#a"/><use xlink:href="#b" x="36.996"/><text y="1.67" class="c">11:23:46</text><text x="9.018" y="1.67" class="d">pascal:~/Code/grrs</text><text x="28.056" y="1.67" class="d">&gt;</text><text x="30.06" y="1.67" class="e">cat</text><text x="34.068" y="1.67" class="e">Car</text></svg><svg x="720"><use xlink:href="#a"/><use xlink:href="#b" x="39.996"/><text y="1.67" class="c">11:23:46</text><text x="9.018" y="1.67" class="d">pascal:~/Code/grrs</text><text x="28.056" y="1.67" class="d">&gt;</text><text x="30.06" y="1.67" class="e">cat</text><text x="34.068" y="1.67" class="e">Cargo.</text></svg><svg x="800"><use xlink:href="#a"/><use xlink:href="#b" x="40.996"/><text y="1.67" class="c">11:23:46</text><text x="9.018" y="1.67" class="d">pascal:~/Code/grrs</text><text x="28.056" y="1.67" class="d">&gt;</text><text x="30.06" y="1.67" class="e">cat</text><text x="34.068" y="1.67" class="e">Cargo.t</text></svg><svg x="880"><use xlink:href="#a"/><use xlink:href="#b" x="41.996"/><text y="1.67" class="c">11:23:46</text><text x="9.018" y="1.67" class="d">pascal:~/Code/grrs</text><text x="28.056" y="1.67" class="d">&gt;</text><text x="30.06" y="1.67" class="e">cat</text><text x="34.068" y="1.67" class="e">Cargo.to</text></svg><svg x="960"><use xlink:href="#a"/><use xlink:href="#b" x="44.996"/><use xlink:href="#2"/></svg><svg x="1040"><use xlink:href="#a"/><use xlink:href="#b" x="-.004" y="2.146"/><use xlink:href="#2"/></svg><svg x="1120"><use xlink:href="#a"/><use xlink:href="#b" x="-.004" y="26.027"/><use xlink:href="#2"/><use xlink:href="#3" y="2.171"/><use xlink:href="#4" y="6.513"/><use xlink:href="#5" y="8.684"/><use xlink:href="#6" y="10.855"/><use xlink:href="#7" y="13.026"/><use xlink:href="#8" y="15.197"/><use xlink:href="#9" y="19.539"/><use xlink:href="#10" y="21.71"/></svg><svg x="1200"><use xlink:href="#a"/><use xlink:href="#b" x="29.996" y="26.027"/><use xlink:href="#2"/><use xlink:href="#3" y="2.171"/><use xlink:href="#4" y="6.513"/><use xlink:href="#5" y="8.684"/><use xlink:href="#6" y="10.855"/><use xlink:href="#7" y="13.026"/><use xlink:href="#8" y="15.197"/><use xlink:href="#9" y="19.539"/><use xlink:href="#10" y="21.71"/><text y="27.722" class="c">11:23:49</text><text x="9.018" y="27.722" class="d">pascal:~/Code/grrs</text><text x="28.056" y="27.722" class="d">&gt;</text></svg><svg x="1280"><use xlink:href="#a"/><use xlink:href="#b" x="44.996" y="26.027"/><use xlink:href="#2"/><use xlink:href="#3" y="2.171"/><use xlink:href="#4" y="6.513"/><use xlink:href="#5" y="8.684"/><use xlink:href="#6" y="10.855"/><use xlink:href="#7" y="13.026"/><use xlink:href="#8" y="15.197"/><use xlink:href="#9" y="19.539"/><use xlink:href="#10" y="21.71"/><text y="27.722" class="c">11:23:49</text><text x="9.018" y="27.722" class="d">pascal:~/Code/grrs</text><text x="28.056" y="27.722" class="d">&gt;</text><text x="30.06" y="27.722" class="e">cat</text><text x="34.068" y="27.722" class="e">Cargo.toml</text></svg><svg x="1360"><use xlink:href="#a"/><use xlink:href="#b" x="33.996" y="26.027"/><use xlink:href="#2"/><use xlink:href="#3" y="2.171"/><use xlink:href="#4" y="6.513"/><use xlink:href="#5" y="8.684"/><use xlink:href="#6" y="10.855"/><use xlink:href="#7" y="13.026"/><use xlink:href="#8" y="15.197"/><use xlink:href="#9" y="19.539"/><use xlink:href="#10" y="21.71"/><text y="27.722" class="c">11:23:49</text><text x="9.018" y="27.722" class="d">pascal:~/Code/grrs</text><text x="28.056" y="27.722" class="d">&gt;</text><text x="30.06" y="27.722" class="e">cat</text></svg><svg x="1440"><use xlink:href="#a"/><use xlink:href="#b" x="34.996" y="26.027"/><use xlink:href="#2"/><use xlink:href="#3" y="2.171"/><use xlink:href="#4" y="6.513"/><use xlink:href="#5" y="8.684"/><use xlink:href="#6" y="10.855"/><use xlink:href="#7" y="13.026"/><use xlink:href="#8" y="15.197"/><use xlink:href="#9" y="19.539"/><use xlink:href="#10" y="21.71"/><text y="27.722" class="c">11:23:49</text><text x="9.018" y="27.722" class="d">pascal:~/Code/grrs</text><text x="28.056" y="27.722" class="d">&gt;</text><text x="30.06" y="27.722" class="e">cat</text><text x="34.068" y="27.722" class="e">s</text></svg><svg x="1520"><use xlink:href="#a"/><use xlink:href="#b" x="35.996" y="26.027"/><use xlink:href="#2"/><use xlink:href="#3" y="2.171"/><use xlink:href="#4" y="6.513"/><use xlink:href="#5" y="8.684"/><use xlink:href="#6" y="10.855"/><use xlink:href="#7" y="13.026"/><use xlink:href="#8" y="15.197"/><use xlink:href="#9" y="19.539"/><use xlink:href="#10" y="21.71"/><text y="27.722" class="c">11:23:49</text><text x="9.018" y="27.722" class="d">pascal:~/Code/grrs</text><text x="28.056" y="27.722" class="d">&gt;</text><text x="30.06" y="27.722" class="e">cat</text><text x="34.068" y="27.722" class="e">sr</text></svg><svg x="1600"><use xlink:href="#a"/><use xlink:href="#b" x="37.996" y="26.027"/><use xlink:href="#2"/><use xlink:href="#3" y="2.171"/><use xlink:href="#4" y="6.513"/><use xlink:href="#5" y="8.684"/><use xlink:href="#6" y="10.855"/><use xlink:href="#7" y="13.026"/><use xlink:href="#8" y="15.197"/><use xlink:href="#9" y="19.539"/><use xlink:href="#10" y="21.71"/><text y="27.722" class="c">11:23:49</text><text x="9.018" y="27.722" class="d">pascal:~/Code/grrs</text><text x="28.056" y="27.722" class="d">&gt;</text><text x="30.06" y="27.722" class="e">cat</text><text x="34.068" y="27.722" class="e">src/</text></svg><svg x="1680"><use xlink:href="#a"/><use xlink:href="#b" x="45.996" y="26.027"/><use xlink:href="#2"/><use xlink:href="#3" y="2.171"/><use xlink:href="#4" y="6.513"/><use xlink:href="#5" y="8.684"/><use xlink:href="#6" y="10.855"/><use xlink:href="#7" y="13.026"/><use xlink:href="#8" y="15.197"/><use xlink:href="#9" y="19.539"/><use xlink:href="#10" y="21.71"/><use xlink:href="#11" y="26.052"/></svg><svg x="1760"><use xlink:href="#a"/><use xlink:href="#b" x="-.004" y="28.198"/><use xlink:href="#2"/><use xlink:href="#3" y="2.171"/><use xlink:href="#4" y="6.513"/><use xlink:href="#5" y="8.684"/><use xlink:href="#6" y="10.855"/><use xlink:href="#7" y="13.026"/><use xlink:href="#8" y="15.197"/><use xlink:href="#9" y="19.539"/><use xlink:href="#10" y="21.71"/><use xlink:href="#11" y="26.052"/></svg><svg x="1840"><use xlink:href="#a"/><use xlink:href="#b" x="-.004" y="43.395"/><use xlink:href="#5"/><use xlink:href="#6" y="2.171"/><use xlink:href="#7" y="4.342"/><use xlink:href="#8" y="6.513"/><use xlink:href="#9" y="10.855"/><use xlink:href="#10" y="13.026"/><use xlink:href="#11" y="17.368"/><use xlink:href="#12" y="19.539"/><use xlink:href="#13" y="23.881"/><use xlink:href="#14" y="26.052"/><use xlink:href="#15" y="28.223"/><use xlink:href="#16" y="30.394"/><use xlink:href="#17" y="32.565"/><use xlink:href="#18" y="36.907"/><use xlink:href="#19" y="39.078"/><use xlink:href="#17" y="41.249"/></svg><svg x="1920"><use xlink:href="#a"/><use xlink:href="#b" x="29.996" y="43.395"/><use xlink:href="#5"/><use xlink:href="#6" y="2.171"/><use xlink:href="#7" y="4.342"/><use xlink:href="#8" y="6.513"/><use xlink:href="#9" y="10.855"/><use xlink:href="#10" y="13.026"/><use xlink:href="#11" y="17.368"/><use xlink:href="#12" y="19.539"/><use xlink:href="#13" y="23.881"/><use xlink:href="#14" y="26.052"/><use xlink:href="#15" y="28.223"/><use xlink:href="#16" y="30.394"/><use xlink:href="#17" y="32.565"/><use xlink:href="#18" y="36.907"/><use xlink:href="#19" y="39.078"/><use xlink:href="#17" y="41.249"/><text y="45.09" class="c">11:23:51</text><text x="9.018" y="45.09" class="d">pascal:~/Code/grrs</text><text x="28.056" y="45.09" class="d">&gt;</text></svg><svg x="2000"><use xlink:href="#a"/><use xlink:href="#b" x="30.996" y="43.395"/><use xlink:href="#5"/><use xlink:href="#6" y="2.171"/><use xlink:href="#7" y="4.342"/><use xlink:href="#8" y="6.513"/><use xlink:href="#9" y="10.855"/><use xlink:href="#10" y="13.026"/><use xlink:href="#11" y="17.368"/><use xlink:href="#12" y="19.539"/><use xlink:href="#13" y="23.881"/><use xlink:href="#14" y="26.052"/><use xlink:href="#15" y="28.223"/><use xlink:href="#16" y="30.394"/><use xlink:href="#17" y="32.565"/><use xlink:href="#18" y="36.907"/><use xlink:href="#19" y="39.078"/><use xlink:href="#17" y="41.249"/><text y="45.09" class="c">11:23:51</text><text x="9.018" y="45.09" class="d">pascal:~/Code/grrs</text><text x="28.056" y="45.09" class="d">&gt;</text><text x="30.06" y="45.09" class="e">c</text></svg><svg x="2080"><use xlink:href="#a"/><use xlink:href="#b" x="31.996" y="43.395"/><use xlink:href="#5"/><use xlink:href="#6" y="2.171"/><use xlink:href="#7" y="4.342"/><use xlink:href="#8" y="6.513"/><use xlink:href="#9" y="10.855"/><use xlink:href="#10" y="13.026"/><use xlink:href="#11" y="17.368"/><use xlink:href="#12" y="19.539"/><use xlink:href="#13" y="23.881"/><use xlink:href="#14" y="26.052"/><use xlink:href="#15" y="28.223"/><use xlink:href="#16" y="30.394"/><use xlink:href="#17" y="32.565"/><use xlink:href="#18" y="36.907"/><use xlink:href="#19" y="39.078"/><use xlink:href="#17" y="41.249"/><text y="45.09" class="c">11:23:51</text><text x="9.018" y="45.09" class="d">pascal:~/Code/grrs</text><text x="28.056" y="45.09" class="d">&gt;</text><text x="30.06" y="45.09" class="e">ca</text></svg><svg x="2160"><use xlink:href="#a"/><use xlink:href="#b" x="32.996" y="43.395"/><use xlink:href="#5"/><use xlink:href="#6" y="2.171"/><use xlink:href="#7" y="4.342"/><use xlink:href="#8" y="6.513"/><use xlink:href="#9" y="10.855"/><use xlink:href="#10" y="13.026"/><use xlink:href="#11" y="17.368"/><use xlink:href="#12" y="19.539"/><use xlink:href="#13" y="23.881"/><use xlink:href="#14" y="26.052"/><use xlink:href="#15" y="28.223"/><use xlink:href="#16" y="30.394"/><use xlink:href="#17" y="32.565"/><use xlink:href="#18" y="36.907"/><use xlink:href="#19" y="39.078"/><use xlink:href="#17" y="41.249"/><text y="45.09" class="c">11:23:51</text><text x="9.018" y="45.09" class="d">pascal:~/Code/grrs</text><text x="28.056" y="45.09" class="d">&gt;</text><text x="30.06" y="45.09" class="e">car</text></svg><svg x="2240"><use xlink:href="#a"/><use xlink:href="#b" x="33.996" y="43.395"/><use xlink:href="#5"/><use xlink:href="#6" y="2.171"/><use xlink:href="#7" y="4.342"/><use xlink:href="#8" y="6.513"/><use xlink:href="#9" y="10.855"/><use xlink:href="#10" y="13.026"/><use xlink:href="#11" y="17.368"/><use xlink:href="#12" y="19.539"/><use xlink:href="#13" y="23.881"/><use xlink:href="#14" y="26.052"/><use xlink:href="#15" y="28.223"/><use xlink:href="#16" y="30.394"/><use xlink:href="#17" y="32.565"/><use xlink:href="#18" y="36.907"/><use xlink:href="#19" y="39.078"/><use xlink:href="#17" y="41.249"/><text y="45.09" class="c">11:23:51</text><text x="9.018" y="45.09" class="d">pascal:~/Code/grrs</text><text x="28.056" y="45.09" class="d">&gt;</text><text x="30.06" y="45.09" class="e">carg</text></svg><svg x="2320"><use xlink:href="#a"/><use xlink:href="#b" x="34.996" y="43.395"/><use xlink:href="#5"/><use xlink:href="#6" y="2.171"/><use xlink:href="#7" y="4.342"/><use xlink:href="#8" y="6.513"/><use xlink:href="#9" y="10.855"/><use xlink:href="#10" y="13.026"/><use xlink:href="#11" y="17.368"/><use xlink:href="#12" y="19.539"/><use xlink:href="#13" y="23.881"/><use xlink:href="#14" y="26.052"/><use xlink:href="#15" y="28.223"/><use xlink:href="#16" y="30.394"/><use xlink:href="#17" y="32.565"/><use xlink:href="#18" y="36.907"/><use xlink:href="#19" y="39.078"/><use xlink:href="#17" y="41.249"/><use xlink:href="#20" y="43.42"/></svg><svg x="2400"><use xlink:href="#a"/><use xlink:href="#b" x="35.996" y="43.395"/><use xlink:href="#5"/><use xlink:href="#6" y="2.171"/><use xlink:href="#7" y="4.342"/><use xlink:href="#8" y="6.513"/><use xlink:href="#9" y="10.855"/><use xlink:href="#10" y="13.026"/><use xlink:href="#11" y="17.368"/><use xlink:href="#12" y="19.539"/><use xlink:href="#13" y="23.881"/><use xlink:href="#14" y="26.052"/><use xlink:href="#15" y="28.223"/><use xlink:href="#16" y="30.394"/><use xlink:href="#17" y="32.565"/><use xlink:href="#18" y="36.907"/><use xlink:href="#19" y="39.078"/><use xlink:href="#17" y="41.249"/><use xlink:href="#20" y="43.42"/></svg><svg x="2480"><use xlink:href="#a"/><use xlink:href="#b" x="36.996" y="43.395"/><use xlink:href="#5"/><use xlink:href="#6" y="2.171"/><use xlink:href="#7" y="4.342"/><use xlink:href="#8" y="6.513"/><use xlink:href="#9" y="10.855"/><use xlink:href="#10" y="13.026"/><use xlink:href="#11" y="17.368"/><use xlink:href="#12" y="19.539"/><use xlink:href="#13" y="23.881"/><use xlink:href="#14" y="26.052"/><use xlink:href="#15" y="28.223"/><use xlink:href="#16" y="30.394"/><use xlink:href="#17" y="32.565"/><use xlink:href="#18" y="36.907"/><use xlink:href="#19" y="39.078"/><use xlink:href="#17" y="41.249"/><text y="45.09" class="c">11:23:51</text><text x="9.018" y="45.09" class="d">pascal:~/Code/grrs</text><text x="28.056" y="45.09" class="d">&gt;</text><text x="30.06" y="45.09" class="e">cargo</text><text x="36.072" y="45.09" class="e">r</text></svg><svg x="2560"><use xlink:href="#a"/><use xlink:href="#b" x="37.996" y="43.395"/><use xlink:href="#5"/><use xlink:href="#6" y="2.171"/><use xlink:href="#7" y="4.342"/><use xlink:href="#8" y="6.513"/><use xlink:href="#9" y="10.855"/><use xlink:href="#10" y="13.026"/><use xlink:href="#11" y="17.368"/><use xlink:href="#12" y="19.539"/><use xlink:href="#13" y="23.881"/><use xlink:href="#14" y="26.052"/><use xlink:href="#15" y="28.223"/><use xlink:href="#16" y="30.394"/><use xlink:href="#17" y="32.565"/><use xlink:href="#18" y="36.907"/><use xlink:href="#19" y="39.078"/><use xlink:href="#17" y="41.249"/><text y="45.09" class="c">11:23:51</text><text x="9.018" y="45.09" class="d">pascal:~/Code/grrs</text><text x="28.056" y="45.09" class="d">&gt;</text><text x="30.06" y="45.09" class="e">cargo</text><text x="36.072" y="45.09" class="e">ru</text></svg><svg x="2640"><use xlink:href="#a"/><use xlink:href="#b" x="38.996" y="43.395"/><use xlink:href="#5"/><use xlink:href="#6" y="2.171"/><use xlink:href="#7" y="4.342"/><use xlink:href="#8" y="6.513"/><use xlink:href="#9" y="10.855"/><use xlink:href="#10" y="13.026"/><use xlink:href="#11" y="17.368"/><use xlink:href="#12" y="19.539"/><use xlink:href="#13" y="23.881"/><use xlink:href="#14" y="26.052"/><use xlink:href="#15" y="28.223"/><use xlink:href="#16" y="30.394"/><use xlink:href="#17" y="32.565"/><use xlink:href="#18" y="36.907"/><use xlink:href="#19" y="39.078"/><use xlink:href="#17" y="41.249"/><use xlink:href="#21" y="43.42"/></svg><svg x="2720"><use xlink:href="#a"/><use xlink:href="#b" x="-.004" y="43.395"/><use xlink:href="#6"/><use xlink:href="#7" y="2.171"/><use xlink:href="#8" y="4.342"/><use xlink:href="#9" y="8.684"/><use xlink:href="#10" y="10.855"/><use xlink:href="#11" y="15.197"/><use xlink:href="#12" y="17.368"/><use xlink:href="#13" y="21.71"/><use xlink:href="#14" y="23.881"/><use xlink:href="#15" y="26.052"/><use xlink:href="#16" y="28.223"/><use xlink:href="#17" y="30.394"/><use xlink:href="#18" y="34.736"/><use xlink:href="#19" y="36.907"/><use xlink:href="#17" y="39.078"/><use xlink:href="#21" y="41.249"/></svg><svg x="2800"><use xlink:href="#a"/><use xlink:href="#b" x="-.004" y="43.395"/><use xlink:href="#6"/><use xlink:href="#7" y="2.171"/><use xlink:href="#8" y="4.342"/><use xlink:href="#9" y="8.684"/><use xlink:href="#10" y="10.855"/><use xlink:href="#11" y="15.197"/><use xlink:href="#12" y="17.368"/><use xlink:href="#13" y="21.71"/><use xlink:href="#14" y="23.881"/><use xlink:href="#15" y="26.052"/><use xlink:href="#16" y="28.223"/><use xlink:href="#17" y="30.394"/><use xlink:href="#18" y="34.736"/><use xlink:href="#19" y="36.907"/><use xlink:href="#17" y="39.078"/><use xlink:href="#21" y="41.249"/></svg><svg x="2880"><use xlink:href="#a"/><use xlink:href="#b" x="-.004" y="43.395"/><use xlink:href="#7"/><use xlink:href="#8" y="2.171"/><use xlink:href="#9" y="6.513"/><use xlink:href="#10" y="8.684"/><use xlink:href="#11" y="13.026"/><use xlink:href="#12" y="15.197"/><use xlink:href="#13" y="19.539"/><use xlink:href="#14" y="21.71"/><use xlink:href="#15" y="23.881"/><use xlink:href="#16" y="26.052"/><use xlink:href="#17" y="28.223"/><use xlink:href="#18" y="32.565"/><use xlink:href="#19" y="34.736"/><use xlink:href="#17" y="36.907"/><use xlink:href="#21" y="39.078"/><use xlink:href="#22" y="41.249"/></svg><svg x="2960"><use xlink:href="#a"/><use xlink:href="#b" x="-.004" y="43.395"/><use xlink:href="#8"/><use xlink:href="#9" y="4.342"/><use xlink:href="#10" y="6.513"/><use xlink:href="#11" y="10.855"/><use xlink:href="#12" y="13.026"/><use xlink:href="#13" y="17.368"/><use xlink:href="#14" y="19.539"/><use xlink:href="#15" y="21.71"/><use xlink:href="#16" y="23.881"/><use xlink:href="#17" y="26.052"/><use xlink:href="#18" y="30.394"/><use xlink:href="#19" y="32.565"/><use xlink:href="#17" y="34.736"/><use xlink:href="#21" y="36.907"/><use xlink:href="#22" y="39.078"/><use xlink:href="#23" y="41.249"/></svg><svg x="3040"><use xlink:href="#a"/><use xlink:href="#b" x="-.004" y="43.395"/><use xlink:href="#13"/><use xlink:href="#14" y="2.171"/><use xlink:href="#15" y="4.342"/><use xlink:href="#16" y="6.513"/><use xlink:href="#17" y="8.684"/><use xlink:href="#18" y="13.026"/><use xlink:href="#19" y="15.197"/><use xlink:href="#17" y="17.368"/><use xlink:href="#21" y="19.539"/><use xlink:href="#22" y="21.71"/><use xlink:href="#23" y="23.881"/><use xlink:href="#24" y="26.052"/><use xlink:href="#25" y="28.223"/><use xlink:href="#26" y="30.394"/><use xlink:href="#27" y="34.736"/><use xlink:href="#28" y="36.907"/><use xlink:href="#29" y="41.249"/></svg><svg x="3120"><use xlink:href="#a"/><use xlink:href="#b" x="29.996" y="43.395"/><use xlink:href="#13"/><use xlink:href="#14" y="2.171"/><use xlink:href="#15" y="4.342"/><use xlink:href="#16" y="6.513"/><use xlink:href="#17" y="8.684"/><use xlink:href="#18" y="13.026"/><use xlink:href="#19" y="15.197"/><use xlink:href="#17" y="17.368"/><use xlink:href="#21" y="19.539"/><use xlink:href="#22" y="21.71"/><use xlink:href="#23" y="23.881"/><use xlink:href="#24" y="26.052"/><use xlink:href="#25" y="28.223"/><use xlink:href="#26" y="30.394"/><use xlink:href="#27" y="34.736"/><use xlink:href="#28" y="36.907"/><use xlink:href="#29" y="41.249"/><text y="45.09" class="c">11:23:54</text><text x="9.018" y="45.09" class="d">pascal:~/Code/grrs</text><text x="28.056" y="45.09" class="d">&gt;</text></svg><svg x="3200"><use xlink:href="#a"/><use xlink:href="#b" x="38.996" y="43.395"/><use xlink:href="#13"/><use xlink:href="#14" y="2.171"/><use xlink:href="#15" y="4.342"/><use xlink:href="#16" y="6.513"/><use xlink:href="#17" y="8.684"/><use xlink:href="#18" y="13.026"/><use xlink:href="#19" y="15.197"/><use xlink:href="#17" y="17.368"/><use xlink:href="#21" y="19.539"/><use xlink:href="#22" y="21.71"/><use xlink:href="#23" y="23.881"/><use xlink:href="#24" y="26.052"/><use xlink:href="#25" y="28.223"/><use xlink:href="#26" y="30.394"/><use xlink:href="#27" y="34.736"/><use xlink:href="#28" y="36.907"/><use xlink:href="#29" y="41.249"/><use xlink:href="#30" y="43.42"/></svg><svg x="3280"><use xlink:href="#a"/><use xlink:href="#b" x="39.996" y="43.395"/><use xlink:href="#13"/><use xlink:href="#14" y="2.171"/><use xlink:href="#15" y="4.342"/><use xlink:href="#16" y="6.513"/><use xlink:href="#17" y="8.684"/><use xlink:href="#18" y="13.026"/><use xlink:href="#19" y="15.197"/><use xlink:href="#17" y="17.368"/><use xlink:href="#21" y="19.539"/><use xlink:href="#22" y="21.71"/><use xlink:href="#23" y="23.881"/><use xlink:href="#24" y="26.052"/><use xlink:href="#25" y="28.223"/><use xlink:href="#26" y="30.394"/><use xlink:href="#27" y="34.736"/><use xlink:href="#28" y="36.907"/><use xlink:href="#29" y="41.249"/><use xlink:href="#30" y="43.42"/></svg><svg x="3360"><use xlink:href="#a"/><use xlink:href="#b" x="40.996" y="43.395"/><use xlink:href="#13"/><use xlink:href="#14" y="2.171"/><use xlink:href="#15" y="4.342"/><use xlink:href="#16" y="6.513"/><use xlink:href="#17" y="8.684"/><use xlink:href="#18" y="13.026"/><use xlink:href="#19" y="15.197"/><use xlink:href="#17" y="17.368"/><use xlink:href="#21" y="19.539"/><use xlink:href="#22" y="21.71"/><use xlink:href="#23" y="23.881"/><use xlink:href="#24" y="26.052"/><use xlink:href="#25" y="28.223"/><use xlink:href="#26" y="30.394"/><use xlink:href="#27" y="34.736"/><use xlink:href="#28" y="36.907"/><use xlink:href="#29" y="41.249"/><text y="45.09" class="c">11:23:54</text><text x="9.018" y="45.09" class="d">pascal:~/Code/grrs</text><text x="28.056" y="45.09" class="d">&gt;</text><text x="30.06" y="45.09" class="e">cargo</text><text x="36.072" y="45.09" class="e">run</text><text x="40.08" y="45.09" class="e">-</text></svg><svg x="3440"><use xlink:href="#a"/><use xlink:href="#b" x="41.996" y="43.395"/><use xlink:href="#13"/><use xlink:href="#14" y="2.171"/><use xlink:href="#15" y="4.342"/><use xlink:href="#16" y="6.513"/><use xlink:href="#17" y="8.684"/><use xlink:href="#18" y="13.026"/><use xlink:href="#19" y="15.197"/><use xlink:href="#17" y="17.368"/><use xlink:href="#21" y="19.539"/><use xlink:href="#22" y="21.71"/><use xlink:href="#23" y="23.881"/><use xlink:href="#24" y="26.052"/><use xlink:href="#25" y="28.223"/><use xlink:href="#26" y="30.394"/><use xlink:href="#27" y="34.736"/><use xlink:href="#28" y="36.907"/><use xlink:href="#29" y="41.249"/><use xlink:href="#31" y="43.42"/></svg><svg x="3520"><use xlink:href="#a"/><use xlink:href="#b" x="42.996" y="43.395"/><use xlink:href="#13"/><use xlink:href="#14" y="2.171"/><use xlink:href="#15" y="4.342"/><use xlink:href="#16" y="6.513"/><use xlink:href="#17" y="8.684"/><use xlink:href="#18" y="13.026"/><use xlink:href="#19" y="15.197"/><use xlink:href="#17" y="17.368"/><use xlink:href="#21" y="19.539"/><use xlink:href="#22" y="21.71"/><use xlink:href="#23" y="23.881"/><use xlink:href="#24" y="26.052"/><use xlink:href="#25" y="28.223"/><use xlink:href="#26" y="30.394"/><use xlink:href="#27" y="34.736"/><use xlink:href="#28" y="36.907"/><use xlink:href="#29" y="41.249"/><use xlink:href="#31" y="43.42"/></svg><svg x="3600"><use xlink:href="#a"/><use xlink:href="#b" x="43.996" y="43.395"/><use xlink:href="#13"/><use xlink:href="#14" y="2.171"/><use xlink:href="#15" y="4.342"/><use xlink:href="#16" y="6.513"/><use xlink:href="#17" y="8.684"/><use xlink:href="#18" y="13.026"/><use xlink:href="#19" y="15.197"/><use xlink:href="#17" y="17.368"/><use xlink:href="#21" y="19.539"/><use xlink:href="#22" y="21.71"/><use xlink:href="#23" y="23.881"/><use xlink:href="#24" y="26.052"/><use xlink:href="#25" y="28.223"/><use xlink:href="#26" y="30.394"/><use xlink:href="#27" y="34.736"/><use xlink:href="#28" y="36.907"/><use xlink:href="#29" y="41.249"/><text y="45.09" class="c">11:23:54</text><text x="9.018" y="45.09" class="d">pascal:~/Code/grrs</text><text x="28.056" y="45.09" class="d">&gt;</text><text x="30.06" y="45.09" class="e">cargo</text><text x="36.072" y="45.09" class="e">run</text><text x="40.08" y="45.09" class="e">--</text><text x="43.086" y="45.09" class="e">-</text></svg><svg x="3680"><use xlink:href="#a"/><use xlink:href="#b" x="44.996" y="43.395"/><use xlink:href="#13"/><use xlink:href="#14" y="2.171"/><use xlink:href="#15" y="4.342"/><use xlink:href="#16" y="6.513"/><use xlink:href="#17" y="8.684"/><use xlink:href="#18" y="13.026"/><use xlink:href="#19" y="15.197"/><use xlink:href="#17" y="17.368"/><use xlink:href="#21" y="19.539"/><use xlink:href="#22" y="21.71"/><use xlink:href="#23" y="23.881"/><use xlink:href="#24" y="26.052"/><use xlink:href="#25" y="28.223"/><use xlink:href="#26" y="30.394"/><use xlink:href="#27" y="34.736"/><use xlink:href="#28" y="36.907"/><use xlink:href="#29" y="41.249"/><text y="45.09" class="c">11:23:54</text><text x="9.018" y="45.09" class="d">pascal:~/Code/grrs</text><text x="28.056" y="45.09" class="d">&gt;</text><text x="30.06" y="45.09" class="e">cargo</text><text x="36.072" y="45.09" class="e">run</text><text x="40.08" y="45.09" class="e">--</text><text x="43.086" y="45.09" class="e">--</text></svg><svg x="3760"><use xlink:href="#a"/><use xlink:href="#b" x="45.996" y="43.395"/><use xlink:href="#13"/><use xlink:href="#14" y="2.171"/><use xlink:href="#15" y="4.342"/><use xlink:href="#16" y="6.513"/><use xlink:href="#17" y="8.684"/><use xlink:href="#18" y="13.026"/><use xlink:href="#19" y="15.197"/><use xlink:href="#17" y="17.368"/><use xlink:href="#21" y="19.539"/><use xlink:href="#22" y="21.71"/><use xlink:href="#23" y="23.881"/><use xlink:href="#24" y="26.052"/><use xlink:href="#25" y="28.223"/><use xlink:href="#26" y="30.394"/><use xlink:href="#27" y="34.736"/><use xlink:href="#28" y="36.907"/><use xlink:href="#29" y="41.249"/><text y="45.09" class="c">11:23:54</text><text x="9.018" y="45.09" class="d">pascal:~/Code/grrs</text><text x="28.056" y="45.09" class="d">&gt;</text><text x="30.06" y="45.09" class="e">cargo</text><text x="36.072" y="45.09" class="e">run</text><text x="40.08" y="45.09" class="e">--</text><text x="43.086" y="45.09" class="e">--h</text></svg><svg x="3840"><use xlink:href="#a"/><use xlink:href="#b" x="46.996" y="43.395"/><use xlink:href="#13"/><use xlink:href="#14" y="2.171"/><use xlink:href="#15" y="4.342"/><use xlink:href="#16" y="6.513"/><use xlink:href="#17" y="8.684"/><use xlink:href="#18" y="13.026"/><use xlink:href="#19" y="15.197"/><use xlink:href="#17" y="17.368"/><use xlink:href="#21" y="19.539"/><use xlink:href="#22" y="21.71"/><use xlink:href="#23" y="23.881"/><use xlink:href="#24" y="26.052"/><use xlink:href="#25" y="28.223"/><use xlink:href="#26" y="30.394"/><use xlink:href="#27" y="34.736"/><use xlink:href="#28" y="36.907"/><use xlink:href="#29" y="41.249"/><text y="45.09" class="c">11:23:54</text><text x="9.018" y="45.09" class="d">pascal:~/Code/grrs</text><text x="28.056" y="45.09" class="d">&gt;</text><text x="30.06" y="45.09" class="e">cargo</text><text x="36.072" y="45.09" class="e">run</text><text x="40.08" y="45.09" class="e">--</text><text x="43.086" y="45.09" class="e">--he</text></svg><svg x="3920"><use xlink:href="#a"/><use xlink:href="#b" x="47.996" y="43.395"/><use xlink:href="#13"/><use xlink:href="#14" y="2.171"/><use xlink:href="#15" y="4.342"/><use xlink:href="#16" y="6.513"/><use xlink:href="#17" y="8.684"/><use xlink:href="#18" y="13.026"/><use xlink:href="#19" y="15.197"/><use xlink:href="#17" y="17.368"/><use xlink:href="#21" y="19.539"/><use xlink:href="#22" y="21.71"/><use xlink:href="#23" y="23.881"/><use xlink:href="#24" y="26.052"/><use xlink:href="#25" y="28.223"/><use xlink:href="#26" y="30.394"/><use xlink:href="#27" y="34.736"/><use xlink:href="#28" y="36.907"/><use xlink:href="#29" y="41.249"/><text y="45.09" class="c">11:23:54</text><text x="9.018" y="45.09" class="d">pascal:~/Code/grrs</text><text x="28.056" y="45.09" class="d">&gt;</text><text x="30.06" y="45.09" class="e">cargo</text><text x="36.072" y="45.09" class="e">run</text><text x="40.08" y="45.09" class="e">--</text><text x="43.086" y="45.09" class="e">--hel</text></svg><svg x="4000"><use xlink:href="#a"/><use xlink:href="#b" x="48.996" y="43.395"/><use xlink:href="#13"/><use xlink:href="#14" y="2.171"/><use xlink:href="#15" y="4.342"/><use xlink:href="#16" y="6.513"/><use xlink:href="#17" y="8.684"/><use xlink:href="#18" y="13.026"/><use xlink:href="#19" y="15.197"/><use xlink:href="#17" y="17.368"/><use xlink:href="#21" y="19.539"/><use xlink:href="#22" y="21.71"/><use xlink:href="#23" y="23.881"/><use xlink:href="#24" y="26.052"/><use xlink:href="#25" y="28.223"/><use xlink:href="#26" y="30.394"/><use xlink:href="#27" y="34.736"/><use xlink:href="#28" y="36.907"/><use xlink:href="#29" y="41.249"/><use xlink:href="#32" y="43.42"/></svg><svg x="4080"><use xlink:href="#a"/><use xlink:href="#b" x="-.004" y="43.395"/><use xlink:href="#14"/><use xlink:href="#15" y="2.171"/><use xlink:href="#16" y="4.342"/><use xlink:href="#17" y="6.513"/><use xlink:href="#18" y="10.855"/><use xlink:href="#19" y="13.026"/><use xlink:href="#17" y="15.197"/><use xlink:href="#21" y="17.368"/><use xlink:href="#22" y="19.539"/><use xlink:href="#23" y="21.71"/><use xlink:href="#24" y="23.881"/><use xlink:href="#25" y="26.052"/><use xlink:href="#26" y="28.223"/><use xlink:href="#27" y="32.565"/><use xlink:href="#28" y="34.736"/><use xlink:href="#29" y="39.078"/><use xlink:href="#32" y="41.249"/></svg><svg x="4160"><use xlink:href="#a"/><use xlink:href="#b" x="-.004" y="43.395"/><use xlink:href="#14"/><use xlink:href="#15" y="2.171"/><use xlink:href="#16" y="4.342"/><use xlink:href="#17" y="6.513"/><use xlink:href="#18" y="10.855"/><use xlink:href="#19" y="13.026"/><use xlink:href="#17" y="15.197"/><use xlink:href="#21" y="17.368"/><use xlink:href="#22" y="19.539"/><use xlink:href="#23" y="21.71"/><use xlink:href="#24" y="23.881"/><use xlink:href="#25" y="26.052"/><use xlink:href="#26" y="28.223"/><use xlink:href="#27" y="32.565"/><use xlink:href="#28" y="34.736"/><use xlink:href="#29" y="39.078"/><use xlink:href="#32" y="41.249"/></svg><svg x="4240"><use xlink:href="#a"/><use xlink:href="#b" x="-.004" y="43.395"/><use xlink:href="#15"/><use xlink:href="#16" y="2.171"/><use xlink:href="#17" y="4.342"/><use xlink:href="#18" y="8.684"/><use xlink:href="#19" y="10.855"/><use xlink:href="#17" y="13.026"/><use xlink:href="#21" y="15.197"/><use xlink:href="#22" y="17.368"/><use xlink:href="#23" y="19.539"/><use xlink:href="#24" y="21.71"/><use xlink:href="#25" y="23.881"/><use xlink:href="#26" y="26.052"/><use xlink:href="#27" y="30.394"/><use xlink:href="#28" y="32.565"/><use xlink:href="#29" y="36.907"/><use xlink:href="#32" y="39.078"/><use xlink:href="#33" y="41.249"/></svg><svg x="4320"><use xlink:href="#a"/><use xlink:href="#b" x="-.004" y="43.395"/><use xlink:href="#16"/><use xlink:href="#17" y="2.171"/><use xlink:href="#18" y="6.513"/><use xlink:href="#19" y="8.684"/><use xlink:href="#17" y="10.855"/><use xlink:href="#21" y="13.026"/><use xlink:href="#22" y="15.197"/><use xlink:href="#23" y="17.368"/><use xlink:href="#24" y="19.539"/><use xlink:href="#25" y="21.71"/><use xlink:href="#26" y="23.881"/><use xlink:href="#27" y="28.223"/><use xlink:href="#28" y="30.394"/><use xlink:href="#29" y="34.736"/><use xlink:href="#32" y="36.907"/><use xlink:href="#33" y="39.078"/><use xlink:href="#34" y="41.249"/></svg><svg x="4400"><use xlink:href="#a"/><use xlink:href="#b" x="-.004" y="43.395"/><use xlink:href="#27"/><use xlink:href="#28" y="2.171"/><use xlink:href="#29" y="6.513"/><use xlink:href="#32" y="8.684"/><use xlink:href="#33" y="10.855"/><use xlink:href="#34" y="13.026"/><use xlink:href="#35" y="15.197"/><use xlink:href="#36" y="17.368"/><use xlink:href="#27" y="21.71"/><use xlink:href="#28" y="23.881"/><use xlink:href="#37" y="28.223"/><use xlink:href="#38" y="30.394"/><use xlink:href="#39" y="32.565"/><use xlink:href="#40" y="36.907"/><use xlink:href="#41" y="39.078"/><use xlink:href="#42" y="41.249"/></svg><svg x="4480"><use xlink:href="#a"/><use xlink:href="#b" x="29.996" y="43.395"/><use xlink:href="#27"/><use xlink:href="#28" y="2.171"/><use xlink:href="#29" y="6.513"/><use xlink:href="#32" y="8.684"/><use xlink:href="#33" y="10.855"/><use xlink:href="#34" y="13.026"/><use xlink:href="#35" y="15.197"/><use xlink:href="#36" y="17.368"/><use xlink:href="#27" y="21.71"/><use xlink:href="#28" y="23.881"/><use xlink:href="#37" y="28.223"/><use xlink:href="#38" y="30.394"/><use xlink:href="#39" y="32.565"/><use xlink:href="#40" y="36.907"/><use xlink:href="#41" y="39.078"/><use xlink:href="#42" y="41.249"/><text y="45.09" class="c">11:23:57</text><text x="9.018" y="45.09" class="d">pascal:~/Code/grrs</text><text x="28.056" y="45.09" class="d">&gt;</text></svg><svg x="4560"><use xlink:href="#a"/><use xlink:href="#b" x="-.004" y="43.395"/><use xlink:href="#28"/><use xlink:href="#29" y="4.342"/><use xlink:href="#32" y="6.513"/><use xlink:href="#33" y="8.684"/><use xlink:href="#34" y="10.855"/><use xlink:href="#35" y="13.026"/><use xlink:href="#36" y="15.197"/><use xlink:href="#27" y="19.539"/><use xlink:href="#28" y="21.71"/><use xlink:href="#37" y="26.052"/><use xlink:href="#38" y="28.223"/><use xlink:href="#39" y="30.394"/><use xlink:href="#40" y="34.736"/><use xlink:href="#41" y="36.907"/><use xlink:href="#42" y="39.078"/><text y="42.919" class="c">11:23:57</text><text x="9.018" y="42.919" class="d">pascal:~/Code/grrs</text><text x="28.056" y="42.919" class="d">&gt;</text><text x="30.06" y="42.919" class="e">exit</text></svg></svg></g></g></svg></svg>