<svg xmlns="http://www.w3.org/2000/svg" xmlns:xlink="http://www.w3.org/1999/xlink" width="800" height="434.2"><rect width="800" height="434.2" rx="0" ry="0" class="a"/><svg height="434.2" viewBox="0 0 80 43.42" width="800" xmlns="http://www.w3.org/2000/svg" xmlns:xlink="http://www.w3.org/1999/xlink"><style>@keyframes l{0%{transform:translateX(0)}.3%{transform:translateX(-80px)}5%{transform:translateX(-160px)}6.3%{transform:translateX(-240px)}7.3%{transform:translateX(-320px)}8.9%{transform:translateX(-400px)}10.1%{transform:translateX(-480px)}11.8%{transform:translateX(-560px)}13.3%{transform:translateX(-640px)}14.3%{transform:translateX(-720px)}14.9%{transform:translateX(-800px)}16%{transform:translateX(-880px)}29.3%{transform:translateX(-960px)}31%{transform:translateX(-1040px)}32.3%{transform:translateX(-1120px)}34.1%{transform:translateX(-1200px)}36.4%{transform:translateX(-1280px)}36.9%{transform:translateX(-1520px)}42.1%{transform:translateX(-1600px)}42.8%{transform:translateX(-1680px)}44.3%{transform:translateX(-1760px)}48.9%{transform:translateX(-1840px)}49.8%{transform:translateX(-1920px)}51.5%{transform:translateX(-2000px)}52.3%{transform:translateX(-2080px)}53.3%{transform:translateX(-2160px)}63.3%{transform:translateX(-2320px)}71.4%{transform:translateX(-2400px)}73.2%{transform:translateX(-2480px)}73.9%{transform:translateX(-2560px)}75.6%{transform:translateX(-2640px)}78.3%{transform:translateX(-2720px)}84.3%{transform:translateX(-2800px)}87.3%{transform:translateX(-2880px)}87.5%{transform:translateX(-3040px)}to{transform:translateX(-3120px)}}.a{fill:#282d35}.c{fill:#dbab79;font-weight:700}.d{fill:#a8cc8c}.e{fill:#b9c0cb}.g{fill:#71bef2;font-weight:700}.h{fill:gray}</style><g font-size="1.67" font-family="Monaco,Consolas,Menlo,'Bitstream Vera Sans Mono','Powerline Symbols',monospace"><defs><symbol id="1"><text y="1.67" class="c">10:30:39</text><text x="9.018" y="1.67" class="d">pascal:~/Code</text><text x="23.046" y="1.67" class="d">&gt;</text><text x="25.05" y="1.67" class="e">cargo</text></symbol><symbol id="2"><text y="1.67" class="c">10:30:39</text><text x="9.018" y="1.67" class="d">pascal:~/Code</text><text x="23.046" y="1.67" class="d">&gt;</text><text x="25.05" y="1.67" class="e">cargo</text><text x="31.062" y="1.67" class="e">new</text></symbol><symbol id="3"><text y="1.67" class="c">10:30:39</text><text x="9.018" y="1.67" class="d">pascal:~/Code</text><text x="23.046" y="1.67" class="d">&gt;</text><text x="25.05" y="1.67" class="e">cargo</text><text x="31.062" y="1.67" class="e">new</text><text x="35.07" y="1.67" class="e">grrs</text></symbol><symbol id="4"><text x="5.01" y="1.67" fill="#a8cc8c" font-weight="700">Created</text><text x="13.026" y="1.67" class="e">binary</text><text x="20.04" y="1.67" class="e">(application)</text><text x="34.068" y="1.67" class="e">`grrs`</text><text x="41.082" y="1.67" class="e">project</text></symbol><symbol id="5"><text y="1.67" class="c">10:30:43</text><text x="9.018" y="1.67" class="d">pascal:~/Code</text><text x="23.046" y="1.67" class="d">&gt;</text><text x="25.05" y="1.67" class="e">cd</text></symbol><symbol id="6"><text y="1.67" class="c">10:30:43</text><text x="9.018" y="1.67" class="d">pascal:~/Code</text><text x="23.046" y="1.67" class="d">&gt;</text><text x="25.05" y="1.67" class="e">cd</text><text x="28.056" y="1.67" class="e">grrs/</text></symbol><symbol id="7"><text y="1.67" class="c">10:30:46</text><text x="9.018" y="1.67" class="d">pascal:~/Code/grrs</text><text x="28.056" y="1.67" class="d">&gt;</text><text x="30.06" y="1.67" class="e">exa</text></symbol><symbol id="8"><text y="1.67" class="c">10:30:46</text><text x="9.018" y="1.67" class="d">pascal:~/Code/grrs</text><text x="28.056" y="1.67" class="d">&gt;</text><text x="30.06" y="1.67" class="e">exa</text><text x="34.068" y="1.67" class="e">-T</text></symbol><symbol id="9"><text y="1.67" class="g">.</text></symbol><symbol id="10"><text y="1.67" class="h">├──</text><text x="4.008" y="1.67" fill="#dbab79" font-weight="700" text-decoration="underline">Cargo.toml</text></symbol><symbol id="11"><text y="1.67" class="h">└──</text><text x="4.008" y="1.67" class="g">src</text></symbol><symbol id="12"><text x="3.006" y="1.67" class="h">└──</text><text x="7.014" y="1.67" class="e">main.rs</text></symbol><symbol id="a"><path fill="transparent" d="M0 0h80v21H0z"/></symbol><symbol id="b"><path fill="#6f7683" d="M0 0h1.102v2.171H0z"/></symbol></defs><path class="a" d="M0 0h80v43.42H0z"/><g style="animation-duration:11.207209s;animation-iteration-count:infinite;animation-name:l;animation-timing-function:steps(1,end)"><svg width="3200"><svg><use xlink:href="#a"/><use xlink:href="#b" x="-.004"/></svg><svg x="80"><use xlink:href="#a"/><use xlink:href="#b" x="24.996"/><text y="1.67" class="c">10:30:39</text><text x="9.018" y="1.67" class="d">pascal:~/Code</text><text x="23.046" y="1.67" class="d">&gt;</text></svg><svg x="160"><use xlink:href="#a"/><use xlink:href="#b" x="25.996"/><text y="1.67" class="c">10:30:39</text><text x="9.018" y="1.67" class="d">pascal:~/Code</text><text x="23.046" y="1.67" class="d">&gt;</text><text x="25.05" y="1.67" class="e">c</text></svg><svg x="240"><use xlink:href="#a"/><use xlink:href="#b" x="26.996"/><text y="1.67" class="c">10:30:39</text><text x="9.018" y="1.67" class="d">pascal:~/Code</text><text x="23.046" y="1.67" class="d">&gt;</text><text x="25.05" y="1.67" class="e">ca</text></svg><svg x="320"><use xlink:href="#a"/><use xlink:href="#b" x="27.996"/><text y="1.67" class="c">10:30:39</text><text x="9.018" y="1.67" class="d">pascal:~/Code</text><text x="23.046" y="1.67" class="d">&gt;</text><text x="25.05" y="1.67" class="e">car</text></svg><svg x="400"><use xlink:href="#a"/><use xlink:href="#b" x="28.996"/><text y="1.67" class="c">10:30:39</text><text x="9.018" y="1.67" class="d">pascal:~/Code</text><text x="23.046" y="1.67" class="d">&gt;</text><text x="25.05" y="1.67" class="e">carg</text></svg><svg x="480"><use xlink:href="#a"/><use xlink:href="#b" x="29.996"/><use xlink:href="#1"/></svg><svg x="560"><use xlink:href="#a"/><use xlink:href="#b" x="30.996"/><use xlink:href="#1"/></svg><svg x="640"><use xlink:href="#a"/><use xlink:href="#b" x="31.996"/><text y="1.67" class="c">10:30:39</text><text x="9.018" y="1.67" class="d">pascal:~/Code</text><text x="23.046" y="1.67" class="d">&gt;</text><text x="25.05" y="1.67" class="e">cargo</text><text x="31.062" y="1.67" class="e">n</text></svg><svg x="720"><use xlink:href="#a"/><use xlink:href="#b" x="32.996"/><text y="1.67" class="c">10:30:39</text><text x="9.018" y="1.67" class="d">pascal:~/Code</text><text x="23.046" y="1.67" class="d">&gt;</text><text x="25.05" y="1.67" class="e">cargo</text><text x="31.062" y="1.67" class="e">ne</text></svg><svg x="800"><use xlink:href="#a"/><use xlink:href="#b" x="33.996"/><use xlink:href="#2"/></svg><svg x="880"><use xlink:href="#a"/><use xlink:href="#b" x="34.996"/><use xlink:href="#2"/></svg><svg x="960"><use xlink:href="#a"/><use xlink:href="#b" x="35.996"/><text y="1.67" class="c">10:30:39</text><text x="9.018" y="1.67" class="d">pascal:~/Code</text><text x="23.046" y="1.67" class="d">&gt;</text><text x="25.05" y="1.67" class="e">cargo</text><text x="31.062" y="1.67" class="e">new</text><text x="35.07" y="1.67" class="e">g</text></svg><svg x="1040"><use xlink:href="#a"/><use xlink:href="#b" x="36.996"/><text y="1.67" class="c">10:30:39</text><text x="9.018" y="1.67" class="d">pascal:~/Code</text><text x="23.046" y="1.67" class="d">&gt;</text><text x="25.05" y="1.67" class="e">cargo</text><text x="31.062" y="1.67" class="e">new</text><text x="35.07" y="1.67" class="e">gr</text></svg><svg x="1120"><use xlink:href="#a"/><use xlink:href="#b" x="37.996"/><text y="1.67" class="c">10:30:39</text><text x="9.018" y="1.67" class="d">pascal:~/Code</text><text x="23.046" y="1.67" class="d">&gt;</text><text x="25.05" y="1.67" class="e">cargo</text><text x="31.062" y="1.67" class="e">new</text><text x="35.07" y="1.67" class="e">grr</text></svg><svg x="1200"><use xlink:href="#a"/><use xlink:href="#b" x="38.996"/><use xlink:href="#3"/></svg><svg x="1280"><use xlink:href="#a"/><use xlink:href="#b" x="-.004" y="2.146"/><use xlink:href="#3"/></svg><svg x="1360"><use xlink:href="#a"/><use xlink:href="#b" x="47.996" y="2.146"/><use xlink:href="#3"/><use xlink:href="#4" y="2.171"/></svg><svg x="1440"><use xlink:href="#a"/><use xlink:href="#b" x="-.004" y="4.317"/><use xlink:href="#3"/><use xlink:href="#4" y="2.171"/></svg><svg x="1520"><use xlink:href="#a"/><use xlink:href="#b" x="24.996" y="4.317"/><use xlink:href="#3"/><use xlink:href="#4" y="2.171"/><text y="6.012" class="c">10:30:43</text><text x="9.018" y="6.012" class="d">pascal:~/Code</text><text x="23.046" y="6.012" class="d">&gt;</text></svg><svg x="1600"><use xlink:href="#a"/><use xlink:href="#b" x="25.996" y="4.317"/><use xlink:href="#3"/><use xlink:href="#4" y="2.171"/><text y="6.012" class="c">10:30:43</text><text x="9.018" y="6.012" class="d">pascal:~/Code</text><text x="23.046" y="6.012" class="d">&gt;</text><text x="25.05" y="6.012" class="e">c</text></svg><svg x="1680"><use xlink:href="#a"/><use xlink:href="#b" x="26.996" y="4.317"/><use xlink:href="#3"/><use xlink:href="#4" y="2.171"/><use xlink:href="#5" y="4.342"/></svg><svg x="1760"><use xlink:href="#a"/><use xlink:href="#b" x="27.996" y="4.317"/><use xlink:href="#3"/><use xlink:href="#4" y="2.171"/><use xlink:href="#5" y="4.342"/></svg><svg x="1840"><use xlink:href="#a"/><use xlink:href="#b" x="28.996" y="4.317"/><use xlink:href="#3"/><use xlink:href="#4" y="2.171"/><text y="6.012" class="c">10:30:43</text><text x="9.018" y="6.012" class="d">pascal:~/Code</text><text x="23.046" y="6.012" class="d">&gt;</text><text x="25.05" y="6.012" class="e">cd</text><text x="28.056" y="6.012" class="e">g</text></svg><svg x="1920"><use xlink:href="#a"/><use xlink:href="#b" x="29.996" y="4.317"/><use xlink:href="#3"/><use xlink:href="#4" y="2.171"/><text y="6.012" class="c">10:30:43</text><text x="9.018" y="6.012" class="d">pascal:~/Code</text><text x="23.046" y="6.012" class="d">&gt;</text><text x="25.05" y="6.012" class="e">cd</text><text x="28.056" y="6.012" class="e">gr</text></svg><svg x="2000"><use xlink:href="#a"/><use xlink:href="#b" x="30.996" y="4.317"/><use xlink:href="#3"/><use xlink:href="#4" y="2.171"/><text y="6.012" class="c">10:30:43</text><text x="9.018" y="6.012" class="d">pascal:~/Code</text><text x="23.046" y="6.012" class="d">&gt;</text><text x="25.05" y="6.012" class="e">cd</text><text x="28.056" y="6.012" class="e">grr</text></svg><svg x="2080"><use xlink:href="#a"/><use xlink:href="#b" x="31.996" y="4.317"/><use xlink:href="#3"/><use xlink:href="#4" y="2.171"/><text y="6.012" class="c">10:30:43</text><text x="9.018" y="6.012" class="d">pascal:~/Code</text><text x="23.046" y="6.012" class="d">&gt;</text><text x="25.05" y="6.012" class="e">cd</text><text x="28.056" y="6.012" class="e">grrs</text></svg><svg x="2160"><use xlink:href="#a"/><use xlink:href="#b" x="32.996" y="4.317"/><use xlink:href="#3"/><use xlink:href="#4" y="2.171"/><use xlink:href="#6" y="4.342"/></svg><svg x="2240"><use xlink:href="#a"/><use xlink:href="#b" x="-.004" y="6.488"/><use xlink:href="#3"/><use xlink:href="#4" y="2.171"/><use xlink:href="#6" y="4.342"/></svg><svg x="2320"><use xlink:href="#a"/><use xlink:href="#b" x="29.996" y="6.488"/><use xlink:href="#3"/><use xlink:href="#4" y="2.171"/><use xlink:href="#6" y="4.342"/><text y="8.183" class="c">10:30:46</text><text x="9.018" y="8.183" class="d">pascal:~/Code/grrs</text><text x="28.056" y="8.183" class="d">&gt;</text></svg><svg x="2400"><use xlink:href="#a"/><use xlink:href="#b" x="30.996" y="6.488"/><use xlink:href="#3"/><use xlink:href="#4" y="2.171"/><use xlink:href="#6" y="4.342"/><text y="8.183" class="c">10:30:46</text><text x="9.018" y="8.183" class="d">pascal:~/Code/grrs</text><text x="28.056" y="8.183" class="d">&gt;</text><text x="30.06" y="8.183" class="e">e</text></svg><svg x="2480"><use xlink:href="#a"/><use xlink:href="#b" x="31.996" y="6.488"/><use xlink:href="#3"/><use xlink:href="#4" y="2.171"/><use xlink:href="#6" y="4.342"/><text y="8.183" class="c">10:30:46</text><text x="9.018" y="8.183" class="d">pascal:~/Code/grrs</text><text x="28.056" y="8.183" class="d">&gt;</text><text x="30.06" y="8.183" class="e">ex</text></svg><svg x="2560"><use xlink:href="#a"/><use xlink:href="#b" x="32.996" y="6.488"/><use xlink:href="#3"/><use xlink:href="#4" y="2.171"/><use xlink:href="#6" y="4.342"/><use xlink:href="#7" y="6.513"/></svg><svg x="2640"><use xlink:href="#a"/><use xlink:href="#b" x="33.996" y="6.488"/><use xlink:href="#3"/><use xlink:href="#4" y="2.171"/><use xlink:href="#6" y="4.342"/><use xlink:href="#7" y="6.513"/></svg><svg x="2720"><use xlink:href="#a"/><use xlink:href="#b" x="34.996" y="6.488"/><use xlink:href="#3"/><use xlink:href="#4" y="2.171"/><use xlink:href="#6" y="4.342"/><text y="8.183" class="c">10:30:46</text><text x="9.018" y="8.183" class="d">pascal:~/Code/grrs</text><text x="28.056" y="8.183" class="d">&gt;</text><text x="30.06" y="8.183" class="e">exa</text><text x="34.068" y="8.183" class="e">-</text></svg><svg x="2800"><use xlink:href="#a"/><use xlink:href="#b" x="35.996" y="6.488"/><use xlink:href="#3"/><use xlink:href="#4" y="2.171"/><use xlink:href="#6" y="4.342"/><use xlink:href="#8" y="6.513"/></svg><svg x="2880"><use xlink:href="#a"/><use xlink:href="#b" x="-.004" y="8.659"/><use xlink:href="#3"/><use xlink:href="#4" y="2.171"/><use xlink:href="#6" y="4.342"/><use xlink:href="#8" y="6.513"/></svg><svg x="2960"><use xlink:href="#a"/><use xlink:href="#b" x="-.004" y="17.343"/><use xlink:href="#3"/><use xlink:href="#4" y="2.171"/><use xlink:href="#6" y="4.342"/><use xlink:href="#8" y="6.513"/><use xlink:href="#9" y="8.684"/><use xlink:href="#10" y="10.855"/><use xlink:href="#11" y="13.026"/><use xlink:href="#12" y="15.197"/></svg><svg x="3040"><use xlink:href="#a"/><use xlink:href="#b" x="29.996" y="17.343"/><use xlink:href="#3"/><use xlink:href="#4" y="2.171"/><use xlink:href="#6" y="4.342"/><use xlink:href="#8" y="6.513"/><use xlink:href="#9" y="8.684"/><use xlink:href="#10" y="10.855"/><use xlink:href="#11" y="13.026"/><use xlink:href="#12" y="15.197"/><text y="19.038" class="c">10:30:49</text><text x="9.018" y="19.038" class="d">pascal:~/Code/grrs</text><text x="28.056" y="19.038" class="d">&gt;</text></svg><svg x="3120"><use xlink:href="#a"/><use xlink:href="#b" x="-.004" y="19.514"/><use xlink:href="#3"/><use xlink:href="#4" y="2.171"/><use xlink:href="#6" y="4.342"/><use xlink:href="#8" y="6.513"/><use xlink:href="#9" y="8.684"/><use xlink:href="#10" y="10.855"/><use xlink:href="#11" y="13.026"/><use xlink:href="#12" y="15.197"/><text y="19.038" class="c">10:30:49</text><text x="9.018" y="19.038" class="d">pascal:~/Code/grrs</text><text x="28.056" y="19.038" class="d">&gt;</text><text x="30.06" y="19.038" class="e">exit</text></svg></svg></g></g></svg></svg>